<?xml version="1.0" standalone="no"?>
<!DOCTYPE svg PUBLIC "-//W3C//DTD SVG 20010904//EN"
 "http://www.w3.org/TR/2001/REC-SVG-20010904/DTD/svg10.dtd">
<svg version="1.0" xmlns="http://www.w3.org/2000/svg"
 width="100.000000pt" height="100.000000pt" viewBox="0 0 100.000000 100.000000"
 preserveAspectRatio="xMidYMid meet">

<g transform="translate(0.000000,100.000000) scale(0.100000,-0.100000)"
fill="#000000" stroke="none">
<path d="M466 855 c-9 -24 -7 -78 3 -93 4 -8 19 -12 32 -10 22 3 24 8 24 58 0
52 -1 55 -26 58 -17 2 -29 -3 -33 -13z"/>
<path d="M227 763 c-15 -15 -5 -41 28 -73 29 -28 39 -32 53 -24 27 18 26 44
-4 75 -26 27 -62 38 -77 22z"/>
<path d="M697 742 c-33 -34 -35 -68 -6 -77 31 -10 94 53 84 84 -9 30 -46 27
-78 -7z"/>
<path d="M415 681 c-49 -22 -99 -77 -115 -127 -29 -86 14 -194 95 -242 34 -19
52 -22 111 -20 81 4 134 32 168 90 104 175 -76 382 -259 299z m138 -62 c65
-33 98 -103 77 -162 -15 -45 -58 -86 -101 -97 -92 -25 -189 71 -165 164 8 31
53 85 80 96 30 13 84 12 109 -1z"/>
<path d="M132 521 c-8 -4 -12 -19 -10 -32 3 -22 8 -24 58 -24 50 0 55 2 58 24
5 29 -12 41 -58 41 -19 0 -41 -4 -48 -9z"/>
<path d="M761 516 c-7 -8 -10 -24 -6 -36 5 -17 15 -20 61 -20 58 0 77 16 57
49 -14 22 -95 27 -112 7z"/>
<path d="M246 291 c-30 -31 -31 -57 -4 -75 14 -8 24 -4 53 24 42 41 44 73 5
78 -18 2 -34 -6 -54 -27z"/>
<path d="M677 313 c-15 -14 -5 -41 27 -72 29 -28 37 -31 55 -22 28 15 27 33
-5 70 -24 29 -61 40 -77 24z"/>
<path d="M472 228 c-16 -16 -15 -79 1 -102 10 -13 20 -16 36 -11 20 6 22 12
19 63 -3 48 -6 57 -23 60 -11 1 -26 -3 -33 -10z"/>
</g>
</svg>
