<?xml version="1.0" standalone="no"?>
<!DOCTYPE svg PUBLIC "-//W3C//DTD SVG 20010904//EN"
 "http://www.w3.org/TR/2001/REC-SVG-20010904/DTD/svg10.dtd">
<svg version="1.0" xmlns="http://www.w3.org/2000/svg"
 width="80pt" height="80pt" viewBox="0 0 80 80"
 preserveAspectRatio="xMidYMid meet">
<metadata>
Created by potrace 1.8, written by Peter Selinger 2001-2007
</metadata>
<g transform="translate(0,80) scale(0.080000,-0.080000)"
fill="#000000" stroke="none">
<path d="M543 791 c-18 -5 -44 -17 -59 -27 -42 -30 -47 -32 -78 -39 -44 -9
-94 -65 -102 -114 -6 -39 -8 -41 -42 -41 -78 0 -142 -72 -142 -160 0 -107 50
-159 164 -170 40 -4 93 -17 120 -30 61 -28 142 -25 204 8 28 14 61 22 93 22
65 0 115 24 144 69 33 51 39 97 21 152 -15 42 -15 50 0 84 16 40 12 84 -13
123 -18 29 -71 62 -99 62 -12 0 -27 7 -35 16 -31 37 -117 59 -176 45z m95 -65
c15 -8 36 -23 46 -35 11 -12 31 -21 47 -21 41 0 58 -9 75 -42 20 -38 11 -83
-14 -72 -9 4 -35 9 -57 12 -26 2 -51 14 -70 32 -41 38 -86 59 -140 67 -39 5
-43 8 -33 21 21 24 71 52 96 52 13 0 35 -6 50 -14z m-75 -130 c18 -7 47 -30
65 -50 28 -32 37 -37 62 -31 53 12 117 -37 126 -96 7 -45 -25 -96 -73 -115
-32 -14 -41 -14 -75 -1 -21 9 -38 11 -38 7 0 -5 -20 -21 -43 -35 -69 -40 -163
-30 -210 23 -17 19 -20 19 -57 5 -35 -14 -41 -14 -77 3 -25 12 -44 32 -57 57
-16 34 -17 42 -4 75 19 49 72 85 116 78 29 -4 38 0 63 28 54 62 131 82 202 52z"/>
</g>
</svg>
