<?xml version="1.0" standalone="no"?>
<!DOCTYPE svg PUBLIC "-//W3C//DTD SVG 20010904//EN"
 "http://www.w3.org/TR/2001/REC-SVG-20010904/DTD/svg10.dtd">
<svg version="1.0" xmlns="http://www.w3.org/2000/svg"
 width="100.000000pt" height="100.000000pt" viewBox="0 0 100.000000 100.000000"
 preserveAspectRatio="xMidYMid meet">

<g transform="translate(0.000000,100.000000) scale(0.100000,-0.100000)"
fill="#000000" stroke="none">
<path d="M395 711 c-22 -10 -51 -30 -64 -45 -16 -16 -35 -26 -53 -26 -102 0
-185 -111 -158 -210 22 -83 92 -133 182 -129 27 1 57 -7 82 -20 73 -39 169
-36 236 6 15 10 48 16 86 17 70 1 103 19 142 76 26 39 30 125 7 169 -23 46
-70 79 -123 87 -32 4 -57 15 -77 35 -16 15 -47 35 -67 43 -51 22 -143 20 -193
-3z m193 -65 c19 -10 41 -30 50 -46 14 -23 21 -28 44 -23 58 11 120 -30 133
-87 18 -82 -83 -159 -157 -119 -16 9 -24 7 -42 -10 -27 -25 -88 -51 -121 -51
-33 0 -94 26 -121 51 -18 17 -26 19 -42 10 -56 -30 -134 4 -153 67 -22 75 40
149 118 140 29 -3 38 1 54 24 51 71 150 89 237 44z"/>
</g>
</svg>
