<?xml version="1.0" standalone="no"?>
<!DOCTYPE svg PUBLIC "-//W3C//DTD SVG 20010904//EN"
 "http://www.w3.org/TR/2001/REC-SVG-20010904/DTD/svg10.dtd">
<svg version="1.0" xmlns="http://www.w3.org/2000/svg"
 width="100.000000pt" height="100.000000pt" viewBox="0 0 100.000000 100.000000"
 preserveAspectRatio="xMidYMid meet">

<g transform="translate(0.000000,100.000000) scale(0.100000,-0.100000)"
fill="#000000" stroke="none">
<path d="M394 845 c-10 -42 3 -77 29 -73 19 3 22 10 25 51 3 44 2 47 -22 47
-19 0 -27 -7 -32 -25z"/>
<path d="M200 762 c0 -25 31 -52 58 -52 28 0 29 30 4 53 -25 23 -62 22 -62 -1z"/>
<path d="M582 768 c-7 -7 -12 -22 -12 -35 0 -17 6 -23 23 -23 29 0 47 18 47
47 0 17 -6 23 -23 23 -13 0 -28 -5 -35 -12z"/>
<path d="M341 713 c-53 -27 -85 -84 -86 -156 0 -59 -1 -61 -30 -69 -17 -4 -44
-22 -62 -40 -110 -117 -27 -294 134 -287 33 1 59 -4 83 -19 67 -40 173 -37
240 5 15 10 48 16 86 17 70 1 103 19 142 76 31 46 31 134 -1 181 -25 38 -97
79 -138 79 -15 0 -32 7 -39 15 -10 12 -9 15 8 15 36 0 52 11 52 36 0 22 -4 24
-46 24 -37 0 -47 -4 -51 -19 -8 -30 -40 -5 -48 36 -7 38 -46 88 -86 108 -37
20 -116 19 -158 -2z m159 -75 c17 -16 30 -34 30 -39 0 -5 -20 -9 -45 -9 -52 0
-109 -21 -142 -52 l-22 -21 -7 27 c-12 50 27 110 82 125 42 11 71 2 104 -31z
m69 -122 c15 -8 41 -30 57 -48 26 -30 35 -33 70 -30 47 4 89 -24 110 -74 14
-33 12 -48 -9 -92 -21 -44 -93 -65 -139 -41 -16 9 -24 7 -42 -10 -28 -27 -88
-51 -126 -51 -34 0 -84 22 -117 52 -17 16 -25 18 -41 9 -30 -16 -84 -13 -110
5 -26 18 -52 65 -52 94 0 61 65 117 126 107 29 -5 37 -1 55 24 43 61 152 88
218 55z"/>
<path d="M114 575 c-9 -24 15 -45 51 -45 36 0 60 21 51 45 -8 21 -94 21 -102
0z"/>
</g>
</svg>
