<?xml version="1.0" standalone="no"?>
<!DOCTYPE svg PUBLIC "-//W3C//DTD SVG 20010904//EN"
 "http://www.w3.org/TR/2001/REC-SVG-20010904/DTD/svg10.dtd">
<svg version="1.0" xmlns="http://www.w3.org/2000/svg"
 width="100.000000pt" height="100.000000pt" viewBox="0 0 100.000000 100.000000"
 preserveAspectRatio="xMidYMid meet">

<g transform="translate(0.000000,100.000000) scale(0.100000,-0.100000)"
fill="#000000" stroke="none">
<path d="M494 887 c-3 -8 -4 -36 -2 -63 3 -45 5 -49 30 -52 32 -4 41 19 36 84
-3 34 -6 39 -31 42 -17 2 -29 -2 -33 -11z"/>
<path d="M227 783 c-15 -14 -5 -41 26 -71 38 -37 73 -42 82 -11 13 40 -80 111
-108 82z"/>
<path d="M451 704 c-197 -58 -199 -365 -3 -422 49 -14 227 -14 277 1 52 15
117 80 133 133 35 118 -20 244 -123 285 -44 17 -231 19 -284 3z m-7 -116 c-26
-50 -24 -143 4 -196 l23 -44 -31 22 c-60 43 -81 101 -59 167 11 35 66 99 76
89 3 -2 -3 -19 -13 -38z"/>
<path d="M120 515 c-6 -8 -10 -22 -8 -32 3 -15 15 -19 65 -21 55 -3 62 -1 68
18 4 12 1 27 -5 35 -17 20 -103 20 -120 0z"/>
<path d="M252 277 c-34 -35 -39 -56 -20 -75 20 -20 42 -14 76 21 34 35 39 56
20 75 -20 20 -42 14 -76 -21z"/>
<path d="M503 213 c-21 -8 -17 -122 3 -130 30 -11 49 11 52 61 4 62 -15 86
-55 69z"/>
</g>
</svg>
