<?xml version="1.0" standalone="no"?>
<!DOCTYPE svg PUBLIC "-//W3C//DTD SVG 20010904//EN"
 "http://www.w3.org/TR/2001/REC-SVG-20010904/DTD/svg10.dtd">
<svg version="1.0" xmlns="http://www.w3.org/2000/svg"
 width="100.000000pt" height="100.000000pt" viewBox="0 0 100.000000 100.000000"
 preserveAspectRatio="xMidYMid meet">

<g transform="translate(0.000000,100.000000) scale(0.100000,-0.100000)"
fill="#000000" stroke="none">
<path d="M356 678 c-124 -131 -135 -146 -136 -181 0 -30 8 -46 41 -82 22 -24
49 -47 58 -50 10 -3 83 29 181 80 90 47 165 85 167 85 2 0 3 -72 3 -160 l0
-160 -25 0 c-20 0 -25 -5 -25 -25 0 -26 0 -26 78 -23 69 3 77 5 77 23 0 14 -8
21 -27 23 l-28 3 0 255 c0 157 4 263 10 275 17 31 -5 63 -38 54 -51 -13 -87
-11 -117 7 -61 36 -72 29 -219 -124z m230 60 c40 -36 91 -131 73 -137 -23 -7
-107 92 -124 147 -9 31 8 28 51 -10z m-44 -84 c18 -27 47 -58 65 -70 l32 -21
-50 -23 c-44 -21 -52 -22 -75 -9 -30 16 -80 84 -89 122 -5 20 1 33 31 67 l38
42 8 -30 c4 -16 23 -51 40 -78z m-148 -48 c8 -19 33 -55 55 -79 l41 -44 -25
-11 c-22 -10 -29 -8 -59 18 -18 17 -41 46 -51 66 -15 32 -15 37 -1 60 9 13 19
24 21 24 3 0 11 -15 19 -34z m-65 -83 c10 -21 28 -47 40 -57 28 -25 27 -31 -9
-46 -29 -12 -33 -11 -61 16 -41 40 -47 69 -18 100 12 13 24 24 26 24 1 0 11
-17 22 -37z"/>
</g>
</svg>
