<?xml version="1.0" standalone="no"?>
<!DOCTYPE svg PUBLIC "-//W3C//DTD SVG 20010904//EN"
 "http://www.w3.org/TR/2001/REC-SVG-20010904/DTD/svg10.dtd">
<svg version="1.0" xmlns="http://www.w3.org/2000/svg"
 width="100.000000pt" height="100.000000pt" viewBox="0 0 100.000000 100.000000"
 preserveAspectRatio="xMidYMid meet">

<g transform="translate(0.000000,100.000000) scale(0.100000,-0.100000)"
fill="#000000" stroke="none">
<path d="M522 785 c-26 -28 -40 -35 -71 -35 -68 0 -75 -13 -120 -235 -38 -185
-40 -201 -25 -223 22 -34 95 -64 147 -60 39 3 44 6 69 53 l28 50 0 -62 0 -63
-31 0 c-26 0 -30 -3 -27 -22 3 -21 9 -23 77 -26 50 -2 77 1 82 9 12 20 -1 39
-27 39 -24 0 -24 1 -24 107 l0 107 50 88 c56 98 57 122 11 161 -29 24 -49 65
-53 112 -4 45 -43 45 -86 0z m-3 -86 c25 -9 31 -16 31 -40 0 -16 -3 -29 -7
-29 -16 0 -113 61 -113 70 0 13 49 13 89 -1z m-15 -95 l46 -19 0 -52 c0 -48
-2 -53 -22 -53 -35 1 -102 35 -125 63 -18 23 -19 32 -10 76 l10 51 27 -24 c16
-13 49 -32 74 -42z m136 26 c0 -6 -9 -10 -20 -10 -13 0 -20 7 -20 20 0 18 3
19 20 10 11 -6 20 -15 20 -20z m-9 -67 c-27 -47 -31 -49 -31 -15 0 26 4 32 20
32 17 0 19 -3 11 -17z m-127 -123 c36 0 50 -14 37 -39 -15 -27 -60 -28 -116
-2 -51 23 -69 44 -61 74 l6 24 56 -28 c31 -16 66 -29 78 -29z m-112 -69 c18
-11 50 -23 71 -26 21 -4 36 -10 35 -14 -2 -3 -10 -19 -18 -35 -13 -25 -18 -28
-52 -23 -59 8 -88 31 -88 71 0 28 6 46 16 46 2 0 18 -9 36 -19z"/>
</g>
</svg>
