<?xml version="1.0" standalone="no"?>
<!DOCTYPE svg PUBLIC "-//W3C//DTD SVG 20010904//EN"
 "http://www.w3.org/TR/2001/REC-SVG-20010904/DTD/svg10.dtd">
<svg version="1.0" xmlns="http://www.w3.org/2000/svg"
 width="100.000000pt" height="100.000000pt" viewBox="0 0 100.000000 100.000000"
 preserveAspectRatio="xMidYMid meet">

<g transform="translate(0.000000,100.000000) scale(0.100000,-0.100000)"
fill="#000000" stroke="none">
<path d="M351 675 c-137 -139 -143 -147 -137 -177 9 -45 55 -108 91 -125 29
-13 34 -12 193 72 90 47 165 85 167 85 3 0 5 -72 5 -159 l0 -160 -27 -3 c-20
-2 -28 -9 -28 -23 0 -18 8 -20 78 -23 77 -3 77 -3 77 23 0 20 -5 25 -26 25
l-26 0 4 290 3 291 -23 6 c-12 3 -28 0 -35 -5 -17 -14 -54 -10 -94 11 -61 32
-70 27 -222 -128z m224 73 c51 -40 107 -148 77 -148 -16 0 -84 74 -103 112
-32 62 -23 74 26 36z m-72 -27 c7 -36 63 -109 104 -137 l32 -21 -50 -24 c-47
-21 -53 -22 -77 -8 -33 18 -92 103 -92 132 0 19 55 87 71 87 3 0 9 -13 12 -29z
m-52 -197 l40 -40 -28 -13 c-26 -12 -30 -10 -70 32 -51 55 -63 90 -37 118 18
20 18 20 37 -18 11 -21 37 -56 58 -79z m-92 -46 c17 -20 31 -38 31 -41 0 -2
-13 -10 -29 -17 -34 -14 -60 -4 -83 32 -28 44 -28 57 -1 89 l26 31 12 -29 c7
-16 27 -46 44 -65z"/>
</g>
</svg>
