<?xml version="1.0" standalone="no"?>
<!DOCTYPE svg PUBLIC "-//W3C//DTD SVG 20010904//EN"
 "http://www.w3.org/TR/2001/REC-SVG-20010904/DTD/svg10.dtd">
<svg version="1.0" xmlns="http://www.w3.org/2000/svg"
 width="100.000000pt" height="100.000000pt" viewBox="0 0 100.000000 100.000000"
 preserveAspectRatio="xMidYMid meet">

<g transform="translate(0.000000,100.000000) scale(0.100000,-0.100000)"
fill="#000000" stroke="none">
<path d="M712 808 c-15 -15 -16 -44 -2 -53 6 -3 10 -33 10 -66 l0 -60 -24 18
c-14 10 -28 30 -31 44 -3 15 -16 36 -29 48 l-23 22 -204 -32 c-247 -39 -244
-38 -244 -143 0 -83 18 -116 64 -116 14 0 105 -13 201 -29 122 -20 181 -26
193 -19 10 5 26 26 35 46 10 21 27 47 40 60 l22 22 0 -170 0 -170 -31 0 c-26
0 -30 -3 -27 -22 3 -21 9 -23 81 -26 77 -3 77 -3 77 23 0 20 -5 25 -26 25
l-26 0 3 303 3 302 -25 3 c-13 2 -30 -3 -37 -10z m-151 -117 c-19 -35 -23
-124 -8 -179 l14 -53 -46 7 c-65 9 -84 31 -88 101 -7 99 24 137 115 142 19 1
21 -2 13 -18z m76 -81 c5 -56 -10 -130 -27 -130 -13 0 -30 60 -30 107 0 24 7
60 16 81 14 33 16 35 26 19 5 -11 12 -45 15 -77z m-242 -20 l0 -101 -25 3
c-30 4 -50 40 -50 93 0 52 19 87 50 96 14 4 25 7 25 8 0 1 0 -44 0 -99z m-106
38 c-6 -22 -7 -60 -4 -83 l7 -41 -37 4 c-40 5 -55 28 -55 86 0 51 18 67 86 75
9 1 9 -10 3 -41z m406 -37 c3 -5 1 -12 -5 -16 -5 -3 -10 1 -10 9 0 18 6 21 15
7z"/>
</g>
</svg>
