<?xml version="1.0" standalone="no"?>
<!DOCTYPE svg PUBLIC "-//W3C//DTD SVG 20010904//EN"
 "http://www.w3.org/TR/2001/REC-SVG-20010904/DTD/svg10.dtd">
<svg version="1.0" xmlns="http://www.w3.org/2000/svg"
 width="100.000000pt" height="100.000000pt" viewBox="0 0 100.000000 100.000000"
 preserveAspectRatio="xMidYMid meet">

<g transform="translate(0.000000,100.000000) scale(0.100000,-0.100000)"
fill="#000000" stroke="none">
<path d="M114 825 c-4 -8 -4 -22 0 -30 5 -13 53 -15 373 -13 l368 3 0 25 0 25
-368 3 c-320 2 -368 0 -373 -13z"/>
<path d="M243 733 c-18 -7 -16 -50 3 -57 9 -3 145 -6 303 -6 210 0 290 3 299
12 16 16 15 23 -4 42 -13 14 -54 16 -302 15 -158 0 -293 -3 -299 -6z"/>
<path d="M154 615 c-4 -8 -4 -22 0 -30 5 -13 43 -15 288 -13 l283 3 0 25 0 25
-283 3 c-245 2 -283 0 -288 -13z"/>
<path d="M276 505 c-3 -8 -3 -22 0 -30 5 -13 45 -15 298 -13 l291 3 0 25 0 25
-291 3 c-253 2 -293 0 -298 -13z"/>
<path d="M402 383 l3 -28 175 0 175 0 3 28 3 27 -181 0 -181 0 3 -27z"/>
<path d="M422 298 c-38 -38 2 -58 115 -58 99 0 116 7 111 41 -3 23 -6 24 -108
27 -73 2 -109 -1 -118 -10z"/>
<path d="M415 179 c-10 -31 6 -41 61 -37 45 3 49 5 49 28 0 23 -4 25 -52 28
-45 3 -52 0 -58 -19z"/>
</g>
</svg>
