<?xml version="1.0" standalone="no"?>
<!DOCTYPE svg PUBLIC "-//W3C//DTD SVG 20010904//EN"
 "http://www.w3.org/TR/2001/REC-SVG-20010904/DTD/svg10.dtd">
<svg version="1.0" xmlns="http://www.w3.org/2000/svg"
 width="100.000000pt" height="100.000000pt" viewBox="0 0 100.000000 100.000000"
 preserveAspectRatio="xMidYMid meet">

<g transform="translate(0.000000,100.000000) scale(0.100000,-0.100000)"
fill="#000000" stroke="none">
<path d="M394 885 c-10 -42 3 -77 29 -73 19 3 22 10 25 51 3 44 2 47 -22 47
-19 0 -27 -7 -32 -25z"/>
<path d="M200 802 c0 -25 31 -52 58 -52 28 0 29 30 4 53 -25 23 -62 22 -62 -1z"/>
<path d="M582 808 c-7 -7 -12 -22 -12 -35 0 -17 6 -23 23 -23 29 0 47 18 47
47 0 17 -6 23 -23 23 -13 0 -28 -5 -35 -12z"/>
<path d="M338 750 c-53 -29 -82 -81 -83 -153 0 -58 0 -58 -40 -76 -169 -77
-112 -330 73 -320 26 1 56 -3 68 -9 16 -8 24 -8 32 0 19 19 14 43 -12 67 -20
19 -28 21 -44 12 -30 -16 -84 -13 -110 5 -26 18 -52 65 -52 94 0 61 65 117
126 107 29 -5 37 -1 55 24 28 40 88 69 144 69 55 0 92 -18 131 -62 26 -30 35
-33 70 -30 49 5 96 -30 114 -83 27 -83 -73 -166 -151 -124 -16 8 -26 5 -49
-13 -32 -26 -38 -49 -15 -68 12 -10 18 -10 29 -1 8 7 44 13 80 14 72 2 105 20
144 77 31 46 31 134 -1 181 -25 38 -97 79 -138 79 -15 0 -32 7 -39 15 -10 12
-9 15 8 15 36 0 52 11 52 36 0 22 -4 24 -46 24 -37 0 -47 -4 -51 -20 -8 -30
-39 -8 -47 34 -8 41 -46 90 -87 111 -39 21 -117 18 -161 -5z m148 -58 c12 -9
27 -27 33 -39 11 -22 10 -23 -34 -23 -52 0 -109 -21 -142 -52 l-22 -21 -7 27
c-8 33 11 81 44 106 31 25 99 26 128 2z"/>
<path d="M114 615 c-9 -24 15 -45 51 -45 36 0 60 21 51 45 -8 21 -94 21 -102
0z"/>
<path d="M466 227 c-43 -73 -31 -117 31 -117 26 0 36 6 45 25 9 21 7 34 -12
76 -13 28 -27 52 -31 55 -5 2 -19 -15 -33 -39z"/>
</g>
</svg>
