<?xml version="1.0" standalone="no"?>
<!DOCTYPE svg PUBLIC "-//W3C//DTD SVG 20010904//EN"
 "http://www.w3.org/TR/2001/REC-SVG-20010904/DTD/svg10.dtd">
<svg version="1.0" xmlns="http://www.w3.org/2000/svg"
 width="100.000000pt" height="100.000000pt" viewBox="0 0 100.000000 100.000000"
 preserveAspectRatio="xMidYMid meet">

<g transform="translate(0.000000,100.000000) scale(0.100000,-0.100000)"
fill="#000000" stroke="none">
<path d="M394 957 c-3 -8 -4 -30 -2 -49 2 -28 7 -33 28 -33 23 0 25 4 25 45 0
39 -3 45 -23 48 -13 2 -24 -3 -28 -11z"/>
<path d="M200 867 c0 -29 29 -57 58 -57 29 0 29 30 -1 58 -31 29 -57 29 -57
-1z"/>
<path d="M582 867 c-29 -31 -29 -57 1 -57 29 0 57 29 57 58 0 29 -30 29 -58
-1z"/>
<path d="M334 811 c-55 -34 -79 -78 -79 -147 l0 -61 -50 -24 c-86 -41 -117
-136 -74 -225 28 -59 78 -89 149 -90 30 0 65 -6 78 -13 20 -10 23 -9 34 14 10
23 9 29 -14 52 -24 23 -28 24 -60 13 -71 -26 -137 17 -145 93 -5 43 -3 49 30
82 32 32 42 36 79 34 38 -2 47 2 83 38 78 78 173 78 251 -1 37 -37 46 -41 83
-38 36 3 46 -1 76 -31 28 -28 35 -43 35 -75 0 -76 -81 -133 -147 -103 -24 11
-38 5 -92 -35 -2 -2 4 -15 13 -29 16 -24 19 -25 40 -12 14 10 38 13 67 10 33
-3 55 1 89 19 143 73 106 295 -52 315 -24 3 -51 13 -62 22 -17 15 -16 16 20
21 31 4 40 10 42 28 3 20 0 22 -47 22 -44 0 -51 -3 -51 -20 0 -33 -37 -2 -45
37 -7 38 -46 88 -86 108 -40 21 -127 19 -165 -4z m132 -47 c19 -9 41 -29 49
-44 l14 -28 -63 -4 c-48 -3 -74 -11 -105 -31 -22 -15 -43 -27 -46 -27 -12 0
-4 64 12 91 16 28 64 58 91 59 8 0 29 -7 48 -16z"/>
<path d="M114 675 c-10 -24 6 -35 52 -35 40 0 44 2 44 25 0 23 -4 25 -45 25
-31 0 -47 -5 -51 -15z"/>
<path d="M461 331 c-28 -53 -27 -97 0 -111 29 -16 68 -4 81 25 9 20 7 33 -13
71 -14 26 -30 49 -36 51 -7 3 -21 -14 -32 -36z"/>
<path d="M246 225 c-42 -64 -39 -119 8 -131 62 -15 84 41 46 116 -24 47 -32
49 -54 15z"/>
<path d="M700 218 c-40 -64 -38 -100 4 -120 32 -14 76 12 76 44 0 25 -40 108
-52 108 -5 0 -17 -15 -28 -32z"/>
<path d="M391 161 c-28 -53 -27 -97 0 -111 29 -16 68 -4 81 25 9 20 7 33 -13
71 -14 26 -30 49 -36 51 -7 3 -21 -14 -32 -36z"/>
<path d="M542 161 c-12 -21 -22 -50 -22 -63 0 -27 28 -58 51 -58 25 0 59 30
59 53 0 25 -40 99 -56 104 -5 2 -20 -14 -32 -36z"/>
</g>
</svg>
