<?xml version="1.0" standalone="no"?>
<!DOCTYPE svg PUBLIC "-//W3C//DTD SVG 20010904//EN"
 "http://www.w3.org/TR/2001/REC-SVG-20010904/DTD/svg10.dtd">
<svg version="1.0" xmlns="http://www.w3.org/2000/svg"
 width="100.000000pt" height="100.000000pt" viewBox="0 0 100.000000 100.000000"
 preserveAspectRatio="xMidYMid meet">

<g transform="translate(0.000000,100.000000) scale(0.100000,-0.100000)"
fill="#000000" stroke="none">
<path d="M415 849 c-17 -5 -49 -24 -72 -44 -23 -19 -52 -35 -65 -35 -35 0
-109 -41 -132 -73 -13 -18 -21 -48 -24 -90 -3 -52 0 -67 20 -96 40 -58 72 -76
141 -77 36 0 75 -8 93 -17 30 -16 32 -15 54 7 l22 24 -21 7 c-12 3 -34 18 -51
31 -23 20 -33 23 -49 15 -45 -24 -117 -3 -138 41 -21 44 -23 59 -9 92 21 50
63 78 110 74 35 -3 44 0 70 30 39 45 76 62 131 62 59 0 109 -23 141 -66 22
-28 30 -32 58 -27 61 10 126 -46 126 -107 0 -29 -26 -76 -52 -94 -26 -18 -80
-21 -109 -5 -16 8 -26 5 -49 -13 -26 -21 -58 -83 -48 -94 2 -2 22 6 44 17 26
14 55 21 87 19 123 -3 209 101 178 216 -18 66 -92 124 -159 124 -16 0 -37 11
-52 27 -53 55 -158 78 -245 52z"/>
<path d="M470 415 l-74 -74 24 -26 24 -25 -22 -67 c-12 -37 -19 -69 -16 -72 6
-6 144 130 144 143 0 5 -9 20 -21 32 l-21 23 22 66 c12 36 20 68 18 70 -2 3
-37 -29 -78 -70z"/>
<path d="M298 346 c-25 -53 -19 -93 16 -102 37 -9 66 12 66 48 0 32 -34 98
-51 98 -5 0 -19 -20 -31 -44z"/>
<path d="M590 350 c-28 -54 -26 -88 5 -102 36 -16 75 3 75 37 0 30 -36 105
-50 105 -5 0 -19 -18 -30 -40z"/>
</g>
</svg>
