<?xml version="1.0" standalone="no"?>
<!DOCTYPE svg PUBLIC "-//W3C//DTD SVG 20010904//EN"
 "http://www.w3.org/TR/2001/REC-SVG-20010904/DTD/svg10.dtd">
<svg version="1.0" xmlns="http://www.w3.org/2000/svg"
 width="100.000000pt" height="100.000000pt" viewBox="0 0 100.000000 100.000000"
 preserveAspectRatio="xMidYMid meet">

<g transform="translate(0.000000,100.000000) scale(0.100000,-0.100000)"
fill="#000000" stroke="none">
<path d="M411 846 c-18 -6 -50 -26 -71 -44 -21 -18 -49 -32 -62 -32 -39 -1
-104 -36 -128 -70 -30 -42 -38 -122 -17 -171 8 -20 32 -49 53 -65 31 -24 47
-29 98 -30 35 0 74 -8 92 -17 29 -15 32 -15 51 5 l21 21 -50 33 c-39 26 -54
32 -68 24 -64 -34 -150 23 -150 100 0 35 6 48 35 77 31 31 40 35 77 31 38 -3
45 0 72 30 39 45 76 62 131 62 58 0 109 -23 143 -66 22 -27 30 -31 57 -27 71
11 135 -58 121 -130 -13 -68 -97 -109 -157 -76 -26 14 -73 -23 -87 -70 -6 -19
-10 -36 -9 -37 1 -2 23 6 47 17 35 16 160 33 160 22 0 -1 -10 -21 -22 -44 -27
-53 -17 -92 25 -97 16 -2 35 2 43 9 21 18 17 70 -10 109 l-23 35 27 16 c33 21
70 93 70 139 0 80 -68 156 -150 167 -25 4 -52 16 -66 30 -57 57 -171 79 -253
49z"/>
<path d="M470 415 l-74 -74 24 -26 24 -25 -22 -67 c-12 -37 -19 -69 -16 -72 6
-6 144 130 144 143 0 5 -9 20 -21 32 l-21 23 22 66 c12 36 20 68 18 70 -2 3
-37 -29 -78 -70z"/>
<path d="M170 400 c-34 -67 -23 -110 30 -110 53 0 65 46 28 111 -12 22 -25 39
-30 39 -4 0 -17 -18 -28 -40z"/>
<path d="M331 377 c-25 -31 -42 -87 -31 -107 15 -29 57 -36 80 -15 25 23 25
38 -1 92 -22 46 -30 51 -48 30z"/>
<path d="M600 340 c-22 -47 -22 -50 -6 -75 22 -33 60 -33 82 0 16 25 16 28 -6
75 -13 28 -29 50 -35 50 -6 0 -22 -22 -35 -50z"/>
</g>
</svg>
