<?xml version="1.0" standalone="no"?>
<!DOCTYPE svg PUBLIC "-//W3C//DTD SVG 20010904//EN"
 "http://www.w3.org/TR/2001/REC-SVG-20010904/DTD/svg10.dtd">
<svg version="1.0" xmlns="http://www.w3.org/2000/svg"
 width="100.000000pt" height="100.000000pt" viewBox="0 0 100.000000 100.000000"
 preserveAspectRatio="xMidYMid meet">

<g transform="translate(0.000000,100.000000) scale(0.100000,-0.100000)"
fill="#000000" stroke="none">
<path d="M429 881 c-40 -13 -72 -32 -101 -59 -16 -15 -43 -27 -65 -29 -48 -5
-97 -36 -122 -77 -26 -41 -28 -123 -5 -172 23 -49 87 -84 151 -84 33 0 70 -9
105 -25 34 -16 71 -25 103 -25 32 0 69 9 103 25 35 16 72 25 104 25 89 0 155
52 173 137 19 92 -52 186 -149 196 -21 2 -48 14 -64 29 -15 14 -42 33 -61 43
-39 20 -134 29 -172 16z m128 -62 c15 -5 45 -27 65 -47 32 -30 45 -36 83 -37
87 -1 140 -92 95 -163 -28 -45 -76 -64 -125 -51 -33 9 -41 8 -75 -16 -67 -46
-154 -46 -210 2 -29 24 -34 25 -71 14 -54 -16 -106 8 -133 62 -16 34 -17 42
-4 75 19 49 72 85 116 78 29 -4 38 0 65 31 51 58 125 78 194 52z"/>
<path d="M222 408 c-15 -15 -15 -61 0 -76 7 -7 24 -12 38 -12 33 0 50 17 50
50 0 33 -17 50 -50 50 -14 0 -31 -5 -38 -12z"/>
<path d="M692 408 c-15 -15 -15 -61 0 -76 7 -7 24 -12 38 -12 33 0 50 17 50
50 0 33 -17 50 -50 50 -14 0 -31 -5 -38 -12z"/>
<path d="M448 345 c-23 -52 46 -100 86 -59 35 34 11 84 -40 84 -27 0 -37 -5
-46 -25z"/>
<path d="M310 209 c-26 -47 16 -91 69 -74 26 8 37 46 21 74 -15 29 -75 29 -90
0z"/>
<path d="M604 222 c-36 -25 -14 -92 31 -92 44 0 67 40 45 81 -11 19 -54 26
-76 11z"/>
</g>
</svg>
