<?xml version="1.0" standalone="no"?>
<!DOCTYPE svg PUBLIC "-//W3C//DTD SVG 20010904//EN"
 "http://www.w3.org/TR/2001/REC-SVG-20010904/DTD/svg10.dtd">
<svg version="1.0" xmlns="http://www.w3.org/2000/svg"
 width="100.000000pt" height="100.000000pt" viewBox="0 0 100.000000 100.000000"
 preserveAspectRatio="xMidYMid meet">

<g transform="translate(0.000000,100.000000) scale(0.100000,-0.100000)"
fill="#000000" stroke="none">
<path d="M420 795 c-25 -8 -63 -30 -84 -50 -26 -24 -48 -35 -68 -35 -45 0
-103 -37 -128 -82 -18 -32 -21 -51 -18 -97 7 -98 65 -151 167 -151 33 0 65 -8
93 -22 26 -14 67 -24 105 -26 53 -4 72 0 117 22 37 18 69 26 108 26 69 0 114
28 146 90 53 102 -10 223 -121 237 -27 4 -53 16 -72 33 -66 61 -161 82 -245
55z m143 -59 c18 -7 47 -30 65 -50 27 -31 38 -37 57 -32 30 8 83 -13 108 -42
10 -11 21 -38 24 -60 4 -33 1 -44 -26 -74 -37 -42 -70 -53 -117 -38 -30 10
-37 9 -69 -16 -24 -18 -52 -29 -85 -32 -63 -6 -91 2 -130 34 -30 26 -33 26
-72 13 -36 -12 -44 -11 -77 7 -21 11 -43 34 -55 57 -16 34 -17 42 -5 74 19 50
59 77 113 78 36 0 48 5 67 29 44 57 136 80 202 52z"/>
<path d="M470 258 c-24 -38 -23 -96 1 -111 25 -16 68 0 75 28 6 26 -30 115
-47 115 -5 0 -18 -15 -29 -32z"/>
</g>
</svg>
