<?xml version="1.0" standalone="no"?>
<!DOCTYPE svg PUBLIC "-//W3C//DTD SVG 20010904//EN"
 "http://www.w3.org/TR/2001/REC-SVG-20010904/DTD/svg10.dtd">
<svg version="1.0" xmlns="http://www.w3.org/2000/svg"
 width="100.000000pt" height="100.000000pt" viewBox="0 0 100.000000 100.000000"
 preserveAspectRatio="xMidYMid meet">

<g transform="translate(0.000000,100.000000) scale(0.100000,-0.100000)"
fill="#000000" stroke="none">
<path d="M430 826 c-45 -12 -120 -60 -120 -77 0 -5 -16 -9 -36 -9 -20 0 -53
-9 -73 -21 -56 -31 -75 -64 -79 -136 -4 -55 -1 -68 22 -103 33 -51 77 -73 143
-73 36 0 68 -8 100 -23 66 -34 151 -33 221 2 36 18 61 24 78 20 68 -18 163 45
183 121 28 103 -47 213 -144 213 -16 0 -43 14 -68 35 -40 34 -119 66 -161 64
-12 0 -41 -6 -66 -13z m135 -65 c23 -10 52 -32 67 -49 21 -25 33 -31 67 -30
105 1 157 -114 83 -185 -35 -33 -74 -43 -112 -27 -26 11 -32 9 -62 -13 -69
-52 -143 -53 -220 -2 -35 24 -43 25 -69 15 -82 -34 -170 60 -135 143 19 47 56
70 110 69 37 -1 46 3 65 29 26 35 92 69 136 69 17 0 48 -9 70 -19z"/>
<path d="M293 339 c-46 -75 -37 -119 23 -119 62 0 69 58 15 129 l-18 23 -20
-33z"/>
<path d="M649 334 c-25 -42 -29 -91 -8 -105 29 -18 69 -10 81 16 9 20 8 33 -7
65 -28 62 -39 67 -66 24z"/>
<path d="M476 238 c-35 -55 -40 -76 -22 -103 20 -30 56 -33 79 -7 22 24 21 36
-5 88 -25 50 -32 53 -52 22z"/>
</g>
</svg>
