<?xml version="1.0" standalone="no"?>
<!DOCTYPE svg PUBLIC "-//W3C//DTD SVG 20010904//EN"
 "http://www.w3.org/TR/2001/REC-SVG-20010904/DTD/svg10.dtd">
<svg version="1.0" xmlns="http://www.w3.org/2000/svg"
 width="100.000000pt" height="100.000000pt" viewBox="0 0 100.000000 100.000000"
 preserveAspectRatio="xMidYMid meet">

<g transform="translate(0.000000,100.000000) scale(0.100000,-0.100000)"
fill="#000000" stroke="none">
<path d="M420 825 c-25 -8 -64 -30 -87 -50 -25 -21 -52 -35 -68 -35 -80 0
-148 -75 -148 -163 0 -106 64 -170 170 -170 36 0 68 -7 100 -23 64 -33 152
-33 216 0 32 16 64 23 101 23 101 0 166 63 166 160 0 30 -7 70 -16 89 -20 42
-87 84 -133 84 -23 0 -39 7 -52 24 -45 57 -167 87 -249 61z m145 -64 c23 -10
52 -32 67 -49 21 -25 33 -31 67 -30 51 1 88 -23 108 -69 17 -43 12 -71 -22
-111 -30 -36 -75 -48 -114 -32 -25 10 -34 7 -78 -20 -76 -47 -159 -40 -225 18
-15 12 -22 13 -48 2 -38 -16 -77 -6 -112 27 -74 71 -22 186 83 185 34 -1 46 5
67 30 31 36 94 68 137 68 17 0 48 -9 70 -19z"/>
<path d="M181 350 c-29 -53 -25 -91 12 -104 59 -21 84 32 47 103 -11 23 -24
41 -28 41 -5 0 -18 -18 -31 -40z"/>
<path d="M750 354 c-38 -65 -15 -125 43 -110 39 9 46 49 17 103 -12 24 -26 43
-30 43 -5 0 -18 -16 -30 -36z"/>
<path d="M330 338 c-42 -68 -37 -110 14 -116 57 -7 71 38 36 108 -11 22 -23
40 -25 40 -3 0 -14 -15 -25 -32z"/>
<path d="M609 334 c-25 -42 -29 -91 -8 -105 29 -18 69 -10 81 16 9 20 8 33 -7
65 -28 62 -39 67 -66 24z"/>
<path d="M462 215 c-27 -55 -27 -67 -4 -88 27 -25 59 -21 79 9 16 25 16 28 -8
72 -13 25 -29 47 -34 49 -6 2 -21 -17 -33 -42z"/>
</g>
</svg>
