<?xml version="1.0" standalone="no"?>
<!DOCTYPE svg PUBLIC "-//W3C//DTD SVG 20010904//EN"
 "http://www.w3.org/TR/2001/REC-SVG-20010904/DTD/svg10.dtd">
<svg version="1.0" xmlns="http://www.w3.org/2000/svg"
 width="100.000000pt" height="100.000000pt" viewBox="0 0 100.000000 100.000000"
 preserveAspectRatio="xMidYMid meet">

<g transform="translate(0.000000,100.000000) scale(0.100000,-0.100000)"
fill="#000000" stroke="none">
<path d="M406 805 c-21 -7 -53 -27 -70 -44 -18 -18 -43 -31 -57 -31 -39 0
-112 -42 -136 -79 -32 -47 -32 -125 0 -172 32 -48 101 -82 154 -75 33 4 51 0
85 -19 58 -34 151 -35 211 -3 30 16 60 23 104 23 70 1 102 18 141 75 26 39 30
116 7 159 -23 46 -70 79 -123 87 -32 4 -57 15 -77 35 -60 57 -155 74 -239 44z
m137 -36 c20 -5 56 -28 79 -49 33 -33 49 -40 80 -40 90 0 144 -90 103 -170
-26 -50 -106 -76 -155 -50 -13 7 -21 5 -31 -7 -21 -24 -89 -53 -129 -53 -40 0
-108 29 -129 53 -10 12 -18 14 -31 7 -52 -28 -133 1 -156 55 -18 44 -18 59 2
101 20 41 59 64 109 64 27 0 43 8 73 38 55 55 113 71 185 51z"/>
<path d="M156 373 c-3 -3 -6 -35 -6 -70 0 -49 3 -63 15 -63 12 0 15 14 15 64
0 60 -8 84 -24 69z"/>
<path d="M816 373 c-3 -3 -6 -35 -6 -70 0 -49 3 -63 15 -63 12 0 15 14 15 64
0 60 -8 84 -24 69z"/>
<path d="M264 316 c-10 -25 1 -119 14 -124 9 -3 12 15 12 67 0 66 -12 93 -26
57z"/>
<path d="M707 324 c-4 -4 -7 -36 -7 -71 0 -47 3 -64 13 -61 7 3 13 27 15 63 3
55 -6 84 -21 69z"/>
<path d="M374 286 c-10 -25 1 -119 14 -124 9 -3 12 15 12 67 0 66 -12 93 -26
57z"/>
<path d="M594 286 c-10 -25 1 -119 14 -124 9 -3 12 15 12 67 0 66 -12 93 -26
57z"/>
<path d="M484 256 c-9 -23 0 -121 11 -119 14 4 19 133 5 133 -6 0 -13 -6 -16
-14z"/>
</g>
</svg>
