<?xml version="1.0" standalone="no"?>
<!DOCTYPE svg PUBLIC "-//W3C//DTD SVG 20010904//EN"
 "http://www.w3.org/TR/2001/REC-SVG-20010904/DTD/svg10.dtd">
<svg version="1.0" xmlns="http://www.w3.org/2000/svg"
 width="100.000000pt" height="100.000000pt" viewBox="0 0 100.000000 100.000000"
 preserveAspectRatio="xMidYMid meet">

<g transform="translate(0.000000,100.000000) scale(0.100000,-0.100000)"
fill="#000000" stroke="none">
<path d="M417 756 c-39 -14 -107 -61 -107 -75 0 -4 -15 -7 -34 -8 -89 -3 -156
-76 -156 -170 0 -95 71 -163 171 -163 42 0 68 -6 96 -22 53 -32 160 -32 224
-1 27 14 64 23 92 23 85 0 135 32 163 106 40 106 -27 215 -138 227 -23 2 -51
16 -77 39 -66 56 -153 72 -234 44z m160 -67 c23 -11 52 -34 64 -50 18 -25 26
-29 50 -24 61 14 129 -45 129 -113 0 -75 -109 -135 -166 -90 -7 5 -16 2 -25
-8 -7 -8 -31 -25 -53 -36 -57 -29 -133 -22 -183 19 -35 27 -40 29 -68 17 -41
-17 -80 -7 -115 28 -53 53 -37 138 32 174 19 10 42 14 62 10 27 -5 35 -2 54
24 50 66 141 87 219 49z"/>
<path d="M290 261 c-14 -27 -1 -47 24 -38 20 8 20 18 2 42 -13 18 -14 18 -26
-4z"/>
<path d="M695 259 c-9 -26 10 -48 26 -32 12 12 3 53 -11 53 -5 0 -12 -9 -15
-21z"/>
<path d="M390 241 c-14 -27 -1 -47 24 -38 20 8 20 18 2 42 -13 18 -14 18 -26
-4z"/>
<path d="M597 253 c-11 -10 -8 -41 4 -49 17 -10 32 12 24 35 -6 21 -16 26 -28
14z"/>
<path d="M490 221 c-14 -27 -1 -47 24 -38 20 8 20 18 2 42 -13 18 -14 18 -26
-4z"/>
</g>
</svg>
