<?xml version="1.0" standalone="no"?>
<!DOCTYPE svg PUBLIC "-//W3C//DTD SVG 20010904//EN"
 "http://www.w3.org/TR/2001/REC-SVG-20010904/DTD/svg10.dtd">
<svg version="1.0" xmlns="http://www.w3.org/2000/svg"
 width="100.000000pt" height="100.000000pt" viewBox="0 0 100.000000 100.000000"
 preserveAspectRatio="xMidYMid meet">

<g transform="translate(0.000000,100.000000) scale(0.100000,-0.100000)"
fill="#000000" stroke="none">
<path d="M420 825 c-25 -8 -63 -30 -85 -48 -27 -22 -54 -36 -82 -39 -134 -18
-187 -186 -89 -284 36 -36 101 -58 141 -48 17 4 38 0 60 -12 l34 -18 -25 -41
c-39 -68 -29 -115 26 -115 52 0 66 50 30 105 -11 17 -20 32 -20 35 0 3 38 5
84 5 l84 0 -19 -37 c-33 -65 -21 -108 31 -108 55 0 64 40 25 109 -27 46 -26
47 15 70 8 5 41 8 72 8 103 0 168 66 168 171 0 82 -73 162 -147 162 -25 0 -43
8 -63 29 -59 59 -158 82 -240 56z m147 -64 c22 -11 51 -33 64 -50 19 -26 28
-30 66 -29 55 1 92 -25 112 -75 12 -32 11 -40 -5 -74 -11 -20 -34 -46 -53 -57
-29 -17 -40 -18 -74 -9 -36 10 -44 9 -78 -14 -74 -49 -149 -48 -217 4 -29 22
-37 24 -62 13 -39 -16 -82 -5 -116 31 -36 38 -41 104 -9 139 27 31 74 49 107
43 22 -4 33 1 55 27 31 38 95 70 138 70 17 0 49 -9 72 -19z"/>
<path d="M180 349 c-37 -71 -12 -124 47 -103 20 6 29 17 31 36 3 28 -32 108
-48 108 -5 0 -19 -18 -30 -41z"/>
<path d="M750 355 c-24 -39 -24 -92 1 -108 25 -16 68 0 75 28 6 25 -30 115
-46 115 -5 0 -18 -16 -30 -35z"/>
<path d="M271 227 c-27 -56 -26 -73 4 -93 30 -19 62 -11 77 21 8 19 6 31 -13
66 -13 23 -29 44 -35 46 -7 2 -21 -16 -33 -40z"/>
<path d="M652 231 c-27 -48 -28 -73 -2 -96 16 -15 26 -17 48 -9 21 7 28 16 30
44 2 34 -28 100 -46 100 -5 0 -18 -17 -30 -39z"/>
<path d="M461 217 c-26 -53 -26 -69 -3 -90 27 -24 59 -21 78 8 15 23 15 27 -7
72 -13 26 -29 49 -35 51 -7 1 -21 -17 -33 -41z"/>
</g>
</svg>
