<?xml version="1.0" standalone="no"?>
<!DOCTYPE svg PUBLIC "-//W3C//DTD SVG 20010904//EN"
 "http://www.w3.org/TR/2001/REC-SVG-20010904/DTD/svg10.dtd">
<svg version="1.0" xmlns="http://www.w3.org/2000/svg"
 width="100.000000pt" height="100.000000pt" viewBox="0 0 100.000000 100.000000"
 preserveAspectRatio="xMidYMid meet">

<g transform="translate(0.000000,100.000000) scale(0.100000,-0.100000)"
fill="#000000" stroke="none">
<path d="M395 811 c-22 -10 -51 -29 -65 -43 -17 -17 -42 -28 -75 -33 -69 -10
-130 -70 -140 -137 -17 -113 62 -203 173 -197 32 2 60 -5 89 -20 78 -39 175
-37 243 6 15 10 48 16 86 17 67 1 99 17 138 70 32 42 30 149 -3 195 -26 36
-90 70 -132 71 -14 0 -34 10 -45 21 -55 62 -188 87 -269 50z m174 -55 c15 -8
41 -30 57 -48 25 -29 35 -33 78 -33 42 -1 52 -5 77 -33 47 -52 35 -138 -22
-168 -32 -16 -82 -18 -109 -4 -13 7 -21 5 -31 -7 -20 -24 -89 -53 -127 -53
-40 0 -89 20 -119 49 -18 17 -27 20 -42 11 -60 -32 -144 9 -157 77 -14 72 50
141 121 130 27 -4 35 0 57 27 15 18 41 40 60 49 41 21 120 22 157 3z"/>
<path d="M144 377 c-3 -8 -4 -43 -2 -78 3 -56 5 -64 23 -64 18 0 20 7 20 75 0
63 -3 75 -18 78 -9 2 -20 -3 -23 -11z"/>
<path d="M804 377 c-3 -8 -4 -43 -2 -78 2 -49 7 -64 18 -64 12 0 15 15 15 74
0 51 -4 76 -12 78 -7 3 -15 -2 -19 -10z"/>
<path d="M683 310 c-38 -65 -27 -110 27 -110 53 0 65 46 28 111 -12 22 -24 39
-27 39 -3 0 -16 -18 -28 -40z"/>
<path d="M250 308 c-44 -72 -34 -118 26 -118 27 0 37 5 45 24 9 20 7 33 -12
71 -13 25 -27 49 -31 51 -4 3 -17 -10 -28 -28z"/>
<path d="M372 308 c-7 -7 -12 -39 -12 -73 0 -65 14 -93 37 -74 8 7 13 34 13
74 0 66 -15 96 -38 73z"/>
<path d="M591 306 c-18 -22 -11 -151 9 -151 12 0 16 16 18 74 3 77 -6 103 -27
77z"/>
<path d="M470 238 c-42 -68 -37 -110 14 -116 57 -7 71 38 36 108 -11 22 -23
40 -25 40 -3 0 -14 -15 -25 -32z"/>
</g>
</svg>
