<?xml version="1.0" standalone="no"?>
<!DOCTYPE svg PUBLIC "-//W3C//DTD SVG 20010904//EN"
 "http://www.w3.org/TR/2001/REC-SVG-20010904/DTD/svg10.dtd">
<svg version="1.0" xmlns="http://www.w3.org/2000/svg"
 width="100.000000pt" height="100.000000pt" viewBox="0 0 100.000000 100.000000"
 preserveAspectRatio="xMidYMid meet">

<g transform="translate(0.000000,100.000000) scale(0.100000,-0.100000)"
fill="#000000" stroke="none">
<path d="M430 821 c-42 -13 -84 -38 -109 -65 -18 -19 -35 -26 -61 -26 -42 0
-92 -30 -124 -73 -30 -40 -30 -144 0 -184 38 -51 81 -73 143 -73 40 0 70 -7
105 -25 67 -34 145 -34 212 0 35 18 65 25 105 25 42 0 65 6 89 23 58 39 75 71
75 142 0 49 -5 70 -21 92 -31 42 -83 73 -121 73 -25 0 -43 9 -70 35 -54 52
-153 77 -223 56z m137 -70 c22 -11 51 -33 64 -51 19 -24 29 -30 47 -25 36 9
89 -13 112 -45 61 -85 -19 -199 -119 -169 -36 11 -42 10 -77 -17 -33 -25 -46
-29 -104 -29 -57 0 -72 4 -103 28 -34 26 -40 27 -75 16 -94 -28 -173 72 -127
160 18 36 76 64 114 56 24 -5 32 -1 50 23 26 37 95 72 141 72 19 0 54 -9 77
-19z"/>
<path d="M157 384 c-4 -4 -7 -41 -7 -81 0 -66 2 -74 18 -71 14 3 17 15 17 77
0 69 -9 93 -28 75z"/>
<path d="M804 376 c-3 -7 -4 -42 -2 -77 3 -56 5 -64 23 -64 18 0 20 8 23 63 3
61 -7 92 -30 92 -5 0 -11 -6 -14 -14z"/>
<path d="M264 327 c-3 -8 -4 -43 -2 -78 2 -49 7 -64 18 -64 12 0 15 15 15 74
0 51 -4 76 -12 78 -7 3 -15 -2 -19 -10z"/>
<path d="M694 327 c-3 -8 -4 -43 -2 -78 3 -56 5 -64 23 -64 18 0 20 7 20 75 0
63 -3 75 -18 78 -9 2 -20 -3 -23 -11z"/>
<path d="M367 304 c-14 -15 -8 -131 8 -144 26 -22 36 2 33 76 -2 53 -7 69 -18
72 -9 1 -19 0 -23 -4z"/>
<path d="M587 304 c-14 -15 -8 -131 8 -144 26 -22 36 2 33 76 -2 53 -7 69 -18
72 -9 1 -19 0 -23 -4z"/>
<path d="M477 274 c-14 -15 -8 -131 8 -144 26 -22 36 2 33 76 -2 53 -7 69 -18
72 -9 1 -19 0 -23 -4z"/>
</g>
</svg>
