<?xml version="1.0" standalone="no"?>
<!DOCTYPE svg PUBLIC "-//W3C//DTD SVG 20010904//EN"
 "http://www.w3.org/TR/2001/REC-SVG-20010904/DTD/svg10.dtd">
<svg version="1.0" xmlns="http://www.w3.org/2000/svg"
 width="100.000000pt" height="100.000000pt" viewBox="0 0 100.000000 100.000000"
 preserveAspectRatio="xMidYMid meet">

<g transform="translate(0.000000,100.000000) scale(0.100000,-0.100000)"
fill="#000000" stroke="none">
<path d="M400 874 c-19 -8 -48 -28 -65 -43 -20 -19 -45 -30 -74 -34 -51 -6
-86 -29 -119 -78 -34 -48 -28 -141 11 -192 32 -42 102 -72 151 -64 24 4 47 -1
82 -19 67 -34 162 -34 223 2 33 18 52 23 74 18 73 -16 162 41 187 119 31 99
-48 217 -146 217 -15 0 -41 13 -62 31 -20 17 -50 38 -68 45 -44 18 -150 17
-194 -2z m145 -45 c22 -6 56 -28 78 -50 34 -34 45 -39 84 -39 99 0 148 -116
78 -185 -31 -32 -70 -41 -112 -26 -30 11 -36 10 -64 -13 -65 -55 -153 -55
-226 0 -27 21 -36 22 -57 13 -53 -25 -121 10 -145 73 -25 67 33 138 114 138
28 0 43 8 75 40 54 54 104 68 175 49z"/>
<path d="M171 403 l-24 -37 20 -35 c11 -19 25 -37 31 -39 6 -2 22 14 36 34
l25 37 -27 38 c-15 21 -29 39 -32 39 -3 0 -16 -17 -29 -37z"/>
<path d="M764 403 l-28 -36 21 -36 c11 -19 25 -37 30 -38 6 -2 22 12 37 31
l27 35 -27 41 c-15 22 -28 40 -29 40 -2 0 -15 -17 -31 -37z"/>
<path d="M316 323 l-25 -36 27 -38 c15 -21 29 -39 32 -39 8 0 50 68 50 80 0
14 -41 70 -52 70 -4 0 -18 -16 -32 -37z"/>
<path d="M612 324 l-23 -36 25 -39 c15 -21 28 -39 31 -39 3 0 16 18 31 39 l25
39 -23 36 c-13 20 -27 36 -33 36 -5 0 -20 -16 -33 -36z"/>
<path d="M465 236 l-26 -35 27 -41 28 -42 28 34 c15 18 28 37 28 42 0 14 -41
76 -50 76 -5 0 -21 -15 -35 -34z"/>
</g>
</svg>
