<?xml version="1.0" standalone="no"?>
<!DOCTYPE svg PUBLIC "-//W3C//DTD SVG 20010904//EN"
 "http://www.w3.org/TR/2001/REC-SVG-20010904/DTD/svg10.dtd">
<svg version="1.0" xmlns="http://www.w3.org/2000/svg"
 width="100.000000pt" height="100.000000pt" viewBox="0 0 100.000000 100.000000"
 preserveAspectRatio="xMidYMid meet">

<g transform="translate(0.000000,100.000000) scale(0.100000,-0.100000)"
fill="#000000" stroke="none">
<path d="M428 836 c-47 -13 -61 -21 -108 -62 -14 -12 -44 -24 -68 -27 -125
-16 -185 -176 -101 -272 37 -42 106 -70 151 -61 24 4 46 -1 82 -19 65 -33 154
-34 211 -4 27 14 61 22 102 23 109 4 173 68 173 174 0 82 -59 149 -141 159
-29 4 -54 15 -74 33 -63 58 -146 78 -227 56z m115 -57 c21 -6 56 -28 78 -50
34 -34 45 -39 83 -39 36 0 50 -6 75 -31 57 -56 40 -141 -34 -176 -29 -14 -41
-14 -75 -4 -38 11 -43 10 -71 -13 -64 -54 -154 -54 -219 1 -27 22 -35 24 -56
14 -36 -16 -64 -14 -100 8 -96 58 -52 201 62 201 38 0 49 5 72 31 27 33 93 68
127 69 11 0 37 -5 58 -11z"/>
<path d="M449 298 c-1 -7 -1 -17 0 -21 1 -5 -9 -17 -21 -28 l-23 -19 23 -6
c13 -4 21 -12 18 -19 -2 -6 0 -18 5 -26 7 -11 12 -12 29 -1 12 7 20 8 20 2 0
-5 10 -10 21 -10 17 0 20 5 17 24 -4 18 0 26 14 29 24 7 23 28 -1 34 -11 3
-17 11 -14 19 8 23 -6 35 -28 24 -13 -8 -25 -7 -39 0 -15 8 -20 8 -21 -2z"/>
</g>
</svg>
