<?xml version="1.0" standalone="no"?>
<!DOCTYPE svg PUBLIC "-//W3C//DTD SVG 20010904//EN"
 "http://www.w3.org/TR/2001/REC-SVG-20010904/DTD/svg10.dtd">
<svg version="1.0" xmlns="http://www.w3.org/2000/svg"
 width="100.000000pt" height="100.000000pt" viewBox="0 0 100.000000 100.000000"
 preserveAspectRatio="xMidYMid meet">

<g transform="translate(0.000000,100.000000) scale(0.100000,-0.100000)"
fill="#000000" stroke="none">
<path d="M411 857 c-18 -7 -51 -28 -74 -47 -24 -20 -54 -35 -75 -37 -131 -14
-197 -164 -117 -269 35 -46 74 -64 139 -64 39 0 66 -7 93 -22 54 -33 172 -33
226 0 28 16 54 22 96 22 115 0 188 90 167 205 -10 50 -68 113 -114 121 -19 4
-43 7 -51 8 -9 1 -29 14 -46 30 -16 15 -43 35 -60 43 -39 21 -141 26 -184 10z
m159 -67 c22 -11 50 -34 62 -51 18 -23 28 -29 46 -24 34 8 88 -12 112 -42 65
-83 -29 -210 -125 -169 -28 12 -33 10 -68 -17 -50 -41 -126 -48 -183 -19 -22
11 -46 27 -53 36 -11 13 -16 13 -47 0 -29 -12 -39 -12 -67 0 -69 28 -94 94
-61 157 18 36 74 63 114 54 23 -5 32 -1 50 26 46 64 147 86 220 49z"/>
<path d="M264 375 c-3 -8 -3 -18 0 -23 3 -6 -3 -12 -14 -15 -26 -7 -26 -27 0
-34 15 -4 19 -11 15 -24 -8 -24 23 -38 36 -18 8 12 10 12 18 0 13 -20 44 -5
38 18 -3 13 1 21 14 24 24 7 24 27 0 34 -12 3 -17 11 -14 23 6 23 -14 35 -33
19 -11 -9 -18 -9 -26 -1 -16 16 -27 15 -34 -3z"/>
<path d="M629 378 c-1 -7 -1 -18 0 -24 1 -7 -8 -14 -19 -17 -26 -7 -26 -27 1
-34 11 -3 18 -11 15 -18 -2 -6 0 -18 5 -26 7 -11 12 -12 29 -1 12 7 20 8 20 2
0 -5 10 -10 21 -10 17 0 20 5 17 24 -4 18 0 26 14 29 24 7 23 27 -1 34 -12 3
-17 11 -14 23 6 23 -14 35 -33 19 -11 -9 -18 -9 -26 -1 -16 16 -28 15 -29 0z"/>
<path d="M446 271 c-4 -5 -4 -16 0 -24 3 -9 -3 -16 -15 -20 -27 -7 -27 -27 -1
-34 11 -3 18 -9 15 -13 -3 -5 -2 -15 1 -24 5 -12 10 -13 25 -5 13 6 25 6 38
-1 22 -11 36 1 28 24 -3 8 3 16 14 19 25 7 25 27 -1 34 -15 4 -18 11 -14 29 5
20 2 24 -15 24 -12 0 -21 -5 -21 -12 0 -9 -3 -9 -12 0 -14 14 -35 16 -42 3z"/>
</g>
</svg>
