<?xml version="1.0" standalone="no"?>
<!DOCTYPE svg PUBLIC "-//W3C//DTD SVG 20010904//EN"
 "http://www.w3.org/TR/2001/REC-SVG-20010904/DTD/svg10.dtd">
<svg version="1.0" xmlns="http://www.w3.org/2000/svg"
 width="100.000000pt" height="100.000000pt" viewBox="0 0 100.000000 100.000000"
 preserveAspectRatio="xMidYMid meet">

<g transform="translate(0.000000,100.000000) scale(0.100000,-0.100000)"
fill="#000000" stroke="none">
<path d="M435 871 c-44 -11 -87 -36 -114 -65 -18 -19 -35 -26 -61 -26 -66 0
-135 -63 -146 -132 -10 -58 4 -106 42 -147 36 -41 104 -66 147 -56 14 4 44 -4
77 -19 75 -35 148 -35 218 0 35 17 61 24 77 20 45 -11 112 13 149 55 96 105
26 279 -112 279 -18 0 -38 10 -53 26 -50 54 -153 84 -224 65z m132 -72 c23
-11 52 -34 64 -51 17 -24 27 -29 48 -25 59 11 131 -48 131 -107 0 -42 -31 -90
-69 -106 -26 -10 -40 -10 -73 -1 -36 11 -42 10 -62 -7 -35 -32 -67 -44 -116
-44 -49 0 -81 12 -116 44 -20 17 -26 18 -62 7 -98 -29 -178 73 -125 161 22 37
56 55 103 53 33 -2 43 3 60 26 25 36 94 71 139 71 19 0 54 -9 78 -21z"/>
<path d="M162 386 c4 -18 0 -26 -14 -29 -10 -3 -18 -10 -18 -17 0 -7 8 -14 18
-17 14 -3 18 -11 14 -29 -3 -17 0 -24 12 -24 9 0 19 7 22 15 5 13 8 13 21 0
21 -21 33 -18 33 8 0 12 9 28 20 35 23 14 18 32 -9 32 -14 0 -17 6 -13 25 5
27 -14 35 -35 14 -8 -8 -13 -8 -17 0 -4 6 -14 11 -23 11 -11 0 -14 -7 -11 -24z"/>
<path d="M730 386 c0 -16 -7 -26 -22 -30 l-23 -6 23 -19 c12 -11 22 -29 22
-40 0 -25 13 -27 33 -6 13 13 16 13 21 0 3 -8 13 -15 22 -15 12 0 15 7 12 24
-4 18 0 26 14 29 10 3 18 10 18 17 0 7 -8 14 -18 17 -14 3 -18 11 -14 29 5 26
-15 33 -35 13 -8 -8 -13 -8 -17 0 -13 20 -36 12 -36 -13z"/>
<path d="M313 328 c-2 -5 -1 -12 2 -18 3 -5 -1 -10 -9 -10 -21 0 -20 -17 0
-28 9 -5 16 -13 16 -18 -1 -5 13 -10 29 -11 20 -2 29 2 29 12 0 8 5 15 10 15
6 0 10 7 10 15 0 8 -4 15 -10 15 -5 0 -10 8 -10 19 0 14 -7 18 -31 17 -17 -1
-33 -4 -36 -8z"/>
<path d="M600 319 c0 -11 -4 -19 -10 -19 -5 0 -10 -7 -10 -15 0 -8 5 -15 10
-15 6 0 10 -7 10 -15 0 -10 9 -14 29 -12 16 1 30 6 29 11 0 5 7 13 16 18 20
11 21 28 2 28 -8 0 -13 7 -12 16 1 11 -9 17 -31 19 -27 2 -33 -1 -33 -16z"/>
<path d="M444 266 c-3 -8 -3 -19 0 -24 3 -6 -3 -12 -14 -15 -26 -7 -26 -27 0
-34 13 -3 19 -13 17 -27 -2 -19 3 -21 43 -21 40 0 45 2 43 21 -2 14 4 24 17
27 26 7 26 27 0 34 -11 3 -18 9 -15 13 3 5 2 15 -1 24 -5 12 -10 13 -25 5 -13
-7 -25 -6 -39 1 -16 9 -22 8 -26 -4z"/>
</g>
</svg>
