<?xml version="1.0" standalone="no"?>
<!DOCTYPE svg PUBLIC "-//W3C//DTD SVG 20010904//EN"
 "http://www.w3.org/TR/2001/REC-SVG-20010904/DTD/svg10.dtd">
<svg version="1.0" xmlns="http://www.w3.org/2000/svg"
 width="100.000000pt" height="100.000000pt" viewBox="0 0 100.000000 100.000000"
 preserveAspectRatio="xMidYMid meet">

<g transform="translate(0.000000,100.000000) scale(0.100000,-0.100000)"
fill="#000000" stroke="none">
<path d="M395 856 c-27 -13 -59 -33 -69 -45 -11 -11 -31 -21 -45 -21 -42 -1
-106 -35 -132 -71 -33 -46 -35 -153 -3 -195 39 -53 70 -69 139 -70 40 -1 73
-7 88 -17 65 -42 164 -44 242 -4 27 13 55 20 87 18 148 -8 233 164 135 276
-35 39 -81 63 -124 63 -17 0 -33 8 -40 19 -6 10 -35 30 -64 45 -69 34 -144 35
-214 2z m182 -53 c19 -9 46 -31 61 -49 22 -27 30 -31 57 -27 71 11 135 -58
121 -130 -13 -68 -97 -109 -158 -76 -16 9 -25 6 -47 -14 -65 -63 -169 -60
-238 5 -18 17 -26 19 -35 10 -7 -7 -30 -12 -51 -12 -31 0 -46 7 -73 34 -46 46
-48 101 -5 148 25 28 35 32 77 33 41 0 53 4 74 29 55 65 142 85 217 49z"/>
<path d="M167 427 c-3 -8 -1 -20 4 -28 6 -10 2 -16 -14 -19 -29 -8 -28 -34 0
-38 18 -3 21 -7 14 -21 -5 -9 -6 -23 -2 -30 7 -10 13 -8 29 10 18 19 22 20 27
6 4 -8 13 -18 22 -21 12 -5 14 0 11 23 -4 25 -1 31 16 33 27 4 27 32 0 36 -17
2 -20 8 -16 32 5 35 -10 39 -32 9 l-14 -21 -11 21 c-13 24 -27 27 -34 8z"/>
<path d="M713 411 c5 -25 3 -30 -16 -33 -12 -2 -22 -10 -22 -18 0 -8 10 -16
22 -18 19 -3 21 -8 16 -34 -6 -29 -5 -30 16 -19 11 7 21 17 21 23 0 7 7 5 18
-4 38 -33 46 -33 39 0 -5 26 -3 31 16 34 33 5 27 32 -8 38 -20 4 -26 8 -17 13
14 9 17 47 3 47 -5 0 -17 -7 -26 -16 -15 -15 -17 -15 -34 0 -26 24 -34 20 -28
-13z"/>
<path d="M370 370 c0 -10 -5 -20 -10 -22 -7 -2 -6 -12 2 -30 10 -20 20 -26 44
-26 21 0 34 6 38 17 3 9 9 22 12 29 3 7 -1 12 -9 12 -10 0 -13 7 -10 19 4 16
-1 19 -31 19 -28 0 -36 -4 -36 -18z"/>
<path d="M560 369 c0 -11 -4 -19 -10 -19 -5 0 -10 -7 -10 -15 0 -8 5 -15 10
-15 6 0 10 -6 10 -14 0 -21 67 -19 74 3 3 9 9 22 12 29 3 6 -1 12 -9 12 -8 0
-14 8 -13 17 1 12 -8 17 -31 19 -26 1 -33 -2 -33 -17z"/>
<path d="M280 268 c0 -19 -2 -24 -17 -32 -15 -8 -15 -10 -1 -20 8 -6 16 -15
17 -21 3 -14 61 -17 61 -3 0 6 8 17 18 24 16 12 16 13 0 19 -10 4 -18 15 -18
24 0 11 -9 16 -30 16 -16 0 -30 -3 -30 -7z"/>
<path d="M673 268 c-2 -5 -1 -12 2 -18 3 -5 -1 -10 -9 -10 -20 0 -21 -19 -2
-26 8 -3 12 -12 10 -19 -4 -9 5 -13 30 -13 24 0 36 5 36 14 0 8 5 14 10 14 6
0 10 7 10 15 0 8 -4 15 -10 15 -5 0 -10 8 -10 18 0 12 -8 17 -31 17 -17 0 -33
-3 -36 -7z"/>
<path d="M453 231 c5 -25 3 -30 -16 -33 -12 -2 -22 -10 -22 -18 0 -8 10 -16
22 -18 19 -3 21 -8 16 -33 -6 -34 9 -39 30 -9 13 19 13 19 31 -2 23 -27 47 -9
29 22 -11 17 -9 19 15 22 16 2 27 9 27 18 0 9 -11 16 -27 18 -24 3 -26 5 -15
22 18 31 -6 49 -29 22 -18 -21 -18 -21 -31 -2 -21 30 -36 25 -30 -9z"/>
</g>
</svg>
