<?xml version="1.0" standalone="no"?>
<!DOCTYPE svg PUBLIC "-//W3C//DTD SVG 20010904//EN"
 "http://www.w3.org/TR/2001/REC-SVG-20010904/DTD/svg10.dtd">
<svg version="1.0" xmlns="http://www.w3.org/2000/svg"
 width="100.000000pt" height="100.000000pt" viewBox="0 0 100.000000 100.000000"
 preserveAspectRatio="xMidYMid meet">

<g transform="translate(0.000000,100.000000) scale(0.100000,-0.100000)"
fill="#000000" stroke="none">
<path d="M445 881 c-44 -11 -87 -36 -114 -65 -18 -19 -35 -26 -61 -26 -75 0
-141 -68 -148 -153 -9 -108 56 -177 171 -182 40 -2 76 -10 102 -24 58 -31 145
-29 213 5 36 18 61 24 78 20 41 -11 105 13 145 53 94 94 38 262 -93 278 -28 4
-53 15 -73 34 -53 49 -153 77 -220 60z m120 -70 c23 -10 53 -32 67 -50 23 -27
33 -31 73 -31 40 0 52 -5 81 -34 25 -25 34 -43 34 -67 0 -80 -80 -138 -150
-109 -27 11 -33 11 -53 -7 -36 -33 -67 -45 -117 -45 -49 0 -81 12 -116 44 -20
17 -26 18 -62 7 -76 -22 -142 27 -142 107 0 34 6 48 31 73 29 30 45 35 99 32
18 -2 32 7 47 27 26 35 97 72 138 72 17 0 48 -9 70 -19z"/>
<path d="M190 378 c-31 -50 -35 -76 -15 -98 25 -28 61 -25 81 5 16 24 16 28
-1 65 -28 62 -41 68 -65 28z"/>
<path d="M750 367 c-29 -54 -22 -94 17 -103 36 -9 57 7 61 45 3 30 -30 101
-47 101 -5 0 -19 -19 -31 -43z"/>
<path d="M323 299 c3 -12 0 -19 -10 -19 -8 0 -12 -5 -9 -12 3 -7 9 -20 12 -29
4 -11 17 -17 38 -17 24 0 34 6 44 26 8 18 9 28 2 30 -5 2 -10 12 -10 22 0 14
-8 18 -36 18 -30 0 -35 -3 -31 -19z"/>
<path d="M610 298 c0 -10 -7 -18 -15 -18 -8 0 -15 -5 -15 -10 0 -6 7 -13 15
-16 8 -4 15 -12 15 -18 0 -7 13 -13 30 -13 17 0 30 6 30 13 0 6 7 14 15 18 8
3 15 10 15 16 0 5 -7 10 -15 10 -8 0 -15 8 -15 18 0 14 -8 19 -30 19 -22 0
-30 -5 -30 -19z"/>
<path d="M471 246 c-41 -66 -17 -127 45 -112 36 9 42 51 14 103 -12 24 -26 43
-31 43 -4 0 -17 -15 -28 -34z"/>
</g>
</svg>
