<?xml version="1.0" standalone="no"?>
<!DOCTYPE svg PUBLIC "-//W3C//DTD SVG 20010904//EN"
 "http://www.w3.org/TR/2001/REC-SVG-20010904/DTD/svg10.dtd">
<svg version="1.0" xmlns="http://www.w3.org/2000/svg"
 width="100.000000pt" height="100.000000pt" viewBox="0 0 100.000000 100.000000"
 preserveAspectRatio="xMidYMid meet">

<g transform="translate(0.000000,100.000000) scale(0.100000,-0.100000)"
fill="#000000" stroke="none">
<path d="M274 725 c-3 -8 3 -30 15 -48 12 -19 21 -37 21 -40 0 -3 -21 -7 -47
-9 -40 -3 -48 -6 -48 -23 0 -17 8 -20 48 -23 26 -2 47 -6 47 -9 0 -3 -9 -21
-21 -40 -24 -38 -19 -63 10 -63 14 0 28 14 42 41 l21 42 22 -39 c25 -46 66
-60 66 -23 0 12 -9 37 -21 55 l-21 34 51 0 c52 0 65 8 55 34 -4 12 -20 16 -56
16 l-50 0 21 34 c12 18 21 43 21 55 0 37 -41 23 -66 -23 l-22 -39 -21 42 c-22
42 -56 56 -67 26z"/>
<path d="M517 472 c-119 -119 -217 -223 -217 -230 0 -37 56 8 248 201 192 192
236 247 199 247 -7 0 -110 -98 -230 -218z"/>
<path d="M658 448 c-36 -54 -68 -130 -68 -158 0 -46 39 -80 90 -80 67 0 104
56 81 122 -14 39 -72 138 -82 138 -4 0 -13 -10 -21 -22z"/>
</g>
</svg>
