<?xml version="1.0" standalone="no"?>
<!DOCTYPE svg PUBLIC "-//W3C//DTD SVG 20010904//EN"
 "http://www.w3.org/TR/2001/REC-SVG-20010904/DTD/svg10.dtd">
<svg version="1.0" xmlns="http://www.w3.org/2000/svg"
 width="100.000000pt" height="100.000000pt" viewBox="0 0 100.000000 100.000000"
 preserveAspectRatio="xMidYMid meet">

<g transform="translate(0.000000,100.000000) scale(0.100000,-0.100000)"
fill="#000000" stroke="none">
<path d="M404 957 c-3 -8 -4 -32 -2 -53 2 -31 7 -39 23 -39 17 0 20 7 20 50 0
39 -4 50 -18 53 -9 2 -20 -3 -23 -11z"/>
<path d="M200 857 c0 -29 29 -57 58 -57 28 0 30 40 4 63 -28 26 -62 22 -62 -6z"/>
<path d="M587 862 c-26 -28 -22 -62 6 -62 31 0 47 18 47 52 0 33 -28 38 -53
10z"/>
<path d="M383 820 c-84 -20 -125 -76 -121 -167 l3 -61 -35 -11 c-79 -23 -132
-120 -110 -201 21 -80 108 -139 184 -127 24 4 47 -1 82 -19 65 -33 153 -33
218 0 34 17 58 22 89 19 54 -6 123 28 154 76 32 47 32 135 1 181 -33 47 -68
71 -119 77 -24 3 -52 14 -62 24 -17 18 -17 19 23 19 36 0 40 2 40 25 0 23 -3
25 -50 25 -39 0 -50 -3 -50 -16 0 -11 -5 -14 -16 -10 -9 3 -18 6 -20 6 -2 0
-4 9 -4 21 0 88 -110 162 -207 139z m87 -65 c27 -14 60 -51 60 -67 0 -5 -23
-8 -52 -8 -39 0 -64 -7 -105 -30 l-53 -30 -6 24 c-8 32 20 82 59 106 38 24 59
25 97 5z m118 -157 c18 -11 40 -31 49 -44 12 -19 24 -24 60 -24 56 0 97 -28
113 -74 15 -46 4 -80 -36 -116 -36 -31 -65 -37 -108 -20 -22 8 -33 4 -71 -22
-38 -27 -55 -32 -100 -32 -45 0 -62 5 -99 31 -40 29 -48 31 -79 21 -44 -14
-77 -5 -110 28 -72 72 -23 184 80 184 37 0 49 6 83 40 63 63 144 74 218 28z"/>
<path d="M116 671 c-3 -5 -3 -17 0 -26 5 -12 17 -15 53 -13 38 3 46 6 46 23 0
17 -8 20 -47 23 -25 2 -49 -1 -52 -7z"/>
<path d="M321 167 c-23 -38 -27 -87 -9 -105 7 -7 27 -12 45 -12 27 0 35 5 44
27 8 21 5 35 -13 72 -13 25 -28 47 -34 49 -7 1 -21 -12 -33 -31z"/>
<path d="M600 179 c0 -11 -10 -29 -22 -39 l-22 -17 22 -14 c12 -8 22 -24 22
-36 0 -26 27 -32 36 -8 5 13 8 13 21 0 8 -8 18 -15 23 -15 10 0 22 29 15 40
-3 4 4 10 15 13 11 3 20 13 20 22 0 9 -9 19 -20 22 -11 3 -18 9 -15 13 7 11
-5 40 -15 40 -5 0 -15 -7 -23 -15 -13 -13 -16 -13 -21 0 -8 23 -36 18 -36 -6z"/>
</g>
</svg>
