<?xml version="1.0" standalone="no"?>
<!DOCTYPE svg PUBLIC "-//W3C//DTD SVG 20010904//EN"
 "http://www.w3.org/TR/2001/REC-SVG-20010904/DTD/svg10.dtd">
<svg version="1.0" xmlns="http://www.w3.org/2000/svg"
 width="100.000000pt" height="100.000000pt" viewBox="0 0 100.000000 100.000000"
 preserveAspectRatio="xMidYMid meet">

<g transform="translate(0.000000,100.000000) scale(0.100000,-0.100000)"
fill="#000000" stroke="none">
<path d="M407 903 c-14 -13 -7 -93 8 -99 23 -9 45 15 45 50 0 43 -31 72 -53
49z"/>
<path d="M210 797 c0 -27 28 -57 53 -57 23 0 22 42 -1 63 -27 25 -52 22 -52
-6z"/>
<path d="M587 802 c-26 -28 -22 -62 6 -62 29 0 57 29 57 58 0 28 -40 30 -63 4z"/>
<path d="M378 761 c-80 -26 -123 -91 -116 -177 4 -52 4 -53 -24 -59 -35 -8
-84 -48 -103 -86 -8 -15 -15 -49 -15 -74 0 -101 67 -168 169 -170 31 -1 65 -5
75 -10 14 -6 23 -3 32 10 19 26 18 31 -15 54 -24 18 -34 19 -58 10 -82 -31
-166 49 -142 135 13 47 55 76 111 76 37 0 48 5 66 29 25 34 97 71 138 71 42
-1 106 -32 136 -69 23 -26 34 -31 72 -31 121 0 158 -154 49 -205 -33 -16 -46
-16 -98 -1 -13 4 -31 -3 -50 -19 -25 -21 -28 -28 -19 -43 11 -16 9 -18 -17
-14 -23 3 -27 8 -20 21 5 9 6 22 4 29 -7 18 -40 15 -48 -5 -6 -17 -7 -17 -16
0 -6 9 -19 17 -31 17 -17 0 -20 -5 -16 -30 4 -26 2 -30 -19 -30 -20 0 -24 -5
-21 -22 2 -14 11 -24 24 -26 17 -2 20 -8 16 -32 -5 -34 16 -41 41 -15 13 13
16 13 27 0 7 -8 18 -15 25 -15 18 0 27 30 14 46 -9 11 -7 14 9 14 11 0 35 14
53 31 27 26 38 30 66 24 109 -20 215 82 198 191 -12 80 -79 144 -151 144 -18
0 -38 8 -49 20 -18 20 -17 20 19 20 40 0 57 20 36 45 -18 22 -77 19 -92 -4
-16 -26 -48 -10 -48 23 0 31 -38 86 -75 107 -37 22 -101 31 -137 20z m124 -87
c15 -15 28 -33 28 -38 0 -6 -22 -12 -49 -13 -49 -1 -100 -21 -134 -51 -21 -19
-30 -11 -29 27 3 97 113 142 184 75z"/>
<path d="M127 623 c-4 -3 -7 -17 -7 -30 0 -22 3 -24 47 -21 37 2 49 7 51 22 2
10 -2 22 -10 27 -16 10 -72 12 -81 2z"/>
</g>
</svg>
