<?xml version="1.0" standalone="no"?>
<!DOCTYPE svg PUBLIC "-//W3C//DTD SVG 20010904//EN"
 "http://www.w3.org/TR/2001/REC-SVG-20010904/DTD/svg10.dtd">
<svg version="1.0" xmlns="http://www.w3.org/2000/svg"
 width="80pt" height="80pt" viewBox="0 0 80 80"
 preserveAspectRatio="xMidYMid meet">
<metadata>
Created by potrace 1.8, written by Peter Selinger 2001-2007
</metadata>
<g transform="translate(0,80) scale(0.080000,-0.080000)"
fill="#000000" stroke="none">
<path d="M194 678 c-14 -44 9 -48 300 -48 149 0 277 4 284 9 8 4 12 19 10 32
l-3 24 -292 3 -292 2 -7 -22z"/>
<path d="M206 577 c-13 -10 -16 -20 -12 -35 l7 -22 292 2 292 3 3 24 c2 13 -2
28 -10 32 -7 5 -135 9 -284 9 -209 0 -274 -3 -288 -13z"/>
<path d="M201 456 c-7 -8 -10 -24 -6 -36 6 -20 11 -20 298 -18 l292 3 0 30 0
30 -286 3 c-242 2 -288 0 -298 -12z"/>
<path d="M199 334 c-9 -11 -10 -20 -2 -32 9 -15 40 -17 299 -17 l289 0 0 30 0
30 -286 3 c-252 2 -288 0 -300 -14z"/>
</g>
</svg>
