<?xml version="1.0" standalone="no"?>
<!DOCTYPE svg PUBLIC "-//W3C//DTD SVG 20010904//EN"
 "http://www.w3.org/TR/2001/REC-SVG-20010904/DTD/svg10.dtd">
<svg version="1.0" xmlns="http://www.w3.org/2000/svg"
 width="100.000000pt" height="100.000000pt" viewBox="0 0 100.000000 100.000000"
 preserveAspectRatio="xMidYMid meet">

<g transform="translate(0.000000,100.000000) scale(0.100000,-0.100000)"
fill="#000000" stroke="none">
<path d="M242 637 c-117 -43 -154 -162 -74 -242 39 -40 82 -55 156 -55 72 0
110 11 143 42 21 20 24 20 41 5 56 -51 186 -63 262 -24 64 32 93 79 87 141 -4
42 -11 55 -44 87 -78 72 -215 79 -290 15 l-27 -24 -31 23 c-60 44 -152 57
-223 32z m158 -76 c19 -10 41 -30 49 -43 13 -23 13 -29 -2 -52 -28 -42 -63
-59 -122 -59 -59 0 -94 17 -122 59 -15 23 -15 29 -2 52 33 57 132 79 199 43z
m317 8 c71 -26 92 -81 49 -124 -51 -51 -148 -53 -210 -4 -84 66 47 171 161
128z"/>
</g>
</svg>
