<?xml version="1.0" standalone="no"?>
<!DOCTYPE svg PUBLIC "-//W3C//DTD SVG 20010904//EN"
 "http://www.w3.org/TR/2001/REC-SVG-20010904/DTD/svg10.dtd">
<svg version="1.0" xmlns="http://www.w3.org/2000/svg"
 width="100.000000pt" height="100.000000pt" viewBox="0 0 100.000000 100.000000"
 preserveAspectRatio="xMidYMid meet">

<g transform="translate(0.000000,100.000000) scale(0.100000,-0.100000)"
fill="#000000" stroke="none">
<path d="M627 780 c99 -57 119 -122 58 -189 -76 -83 -234 -126 -443 -119 -88
3 -128 1 -116 -5 73 -41 326 -60 459 -34 44 8 88 18 98 22 28 11 20 -14 -15
-49 -18 -18 -60 -43 -93 -56 -52 -21 -77 -24 -197 -25 -76 0 -138 -3 -138 -7
0 -3 31 -14 69 -22 76 -17 229 -20 301 -6 53 10 59 7 36 -19 -26 -28 -103 -58
-171 -67 -54 -6 -59 -5 -47 9 8 9 11 25 7 37 -10 31 -59 24 -63 -9 -2 -13 2
-28 10 -33 8 -5 -2 -6 -27 -2 -60 10 -31 -11 33 -25 118 -25 264 -5 330 46 30
23 33 30 30 66 -3 36 0 45 29 70 35 31 44 78 22 118 -8 17 -6 24 16 40 31 26
55 70 55 104 0 67 -70 129 -189 165 -95 30 -116 26 -54 -10z"/>
<path d="M246 764 c-27 -26 -12 -58 25 -52 39 5 36 67 -3 68 -4 0 -14 -7 -22
-16z"/>
<path d="M493 773 c-7 -2 -13 -18 -13 -34 0 -27 3 -30 28 -27 20 2 28 9 30 27
5 31 -16 46 -45 34z"/>
<path d="M383 664 c-8 -22 10 -49 32 -49 22 0 40 27 32 49 -8 21 -56 21 -64 0z"/>
<path d="M154 646 c-11 -28 1 -51 25 -51 32 0 49 28 32 49 -17 20 -50 21 -57
2z"/>
<path d="M547 633 c-15 -15 -6 -52 14 -58 28 -9 53 16 44 44 -6 20 -43 29 -58
14z"/>
<path d="M295 549 c-9 -29 15 -53 44 -44 34 10 25 59 -11 63 -20 2 -28 -2 -33
-19z"/>
<path d="M300 395 c-18 -22 -1 -50 31 -50 20 0 24 5 24 30 0 23 -5 31 -21 33
-11 2 -27 -4 -34 -13z"/>
<path d="M484 396 c-11 -29 0 -51 26 -51 21 0 25 5 25 30 0 24 -5 31 -23 33
-13 2 -24 -3 -28 -12z"/>
</g>
</svg>
