<?xml version="1.0" standalone="no"?>
<!DOCTYPE svg PUBLIC "-//W3C//DTD SVG 20010904//EN"
 "http://www.w3.org/TR/2001/REC-SVG-20010904/DTD/svg10.dtd">
<svg version="1.0" xmlns="http://www.w3.org/2000/svg"
 width="100.000000pt" height="100.000000pt" viewBox="0 0 100.000000 100.000000"
 preserveAspectRatio="xMidYMid meet">

<g transform="translate(0.000000,100.000000) scale(0.100000,-0.100000)"
fill="#000000" stroke="none">
<path d="M210 740 c-11 -11 -20 -27 -20 -35 0 -18 35 -55 53 -55 24 0 57 31
57 54 0 26 -28 56 -53 56 -9 0 -26 -9 -37 -20z"/>
<path d="M698 749 c-12 -6 -18 -22 -18 -45 0 -27 5 -37 25 -46 53 -24 100 46
57 85 -21 19 -39 21 -64 6z"/>
<path d="M452 648 c-7 -7 -12 -24 -12 -38 0 -33 17 -50 50 -50 14 0 31 5 38
12 7 7 12 24 12 38 0 33 -17 50 -50 50 -14 0 -31 -5 -38 -12z"/>
<path d="M204 545 c-26 -39 -6 -75 40 -75 51 0 75 50 40 84 -24 24 -61 20 -80
-9z"/>
<path d="M692 558 c-15 -15 -15 -61 0 -76 7 -7 24 -12 38 -12 32 0 50 17 50
46 0 44 -58 72 -88 42z"/>
<path d="M456 464 c-23 -22 -20 -71 3 -84 27 -14 47 -13 65 6 32 32 10 94 -34
94 -10 0 -26 -7 -34 -16z"/>
<path d="M114 275 c-4 -8 -4 -22 0 -30 5 -13 53 -15 378 -13 l373 3 0 25 0 25
-373 3 c-325 2 -373 0 -378 -13z"/>
</g>
</svg>
