<?xml version="1.0" standalone="no"?>
<!DOCTYPE svg PUBLIC "-//W3C//DTD SVG 20010904//EN"
 "http://www.w3.org/TR/2001/REC-SVG-20010904/DTD/svg10.dtd">
<svg version="1.0" xmlns="http://www.w3.org/2000/svg"
 width="100.000000pt" height="100.000000pt" viewBox="0 0 100.000000 100.000000"
 preserveAspectRatio="xMidYMid meet">

<g transform="translate(0.000000,100.000000) scale(0.100000,-0.100000)"
fill="#000000" stroke="none">
<path d="M475 752 c-35 -7 -65 -43 -65 -78 l0 -33 -142 -3 -143 -3 0 -30 0
-30 203 -3 203 -2 30 29 c52 52 33 131 -36 149 -16 5 -39 6 -50 4z"/>
<path d="M725 615 c-17 -16 -25 -35 -25 -59 l0 -36 -287 -2 -288 -3 0 -25 0
-25 340 -3 c187 -1 350 0 362 3 26 6 53 52 53 90 0 16 -12 38 -29 56 -38 38
-91 40 -126 4z"/>
<path d="M133 403 c-18 -7 -16 -50 3 -57 9 -3 99 -6 200 -6 179 0 184 -1 184
-20 0 -29 26 -76 45 -84 9 -3 33 -6 54 -6 41 0 74 27 84 69 9 35 -17 89 -48
101 -26 10 -499 13 -522 3z"/>
</g>
</svg>
