<?xml version="1.0" standalone="no"?>
<!DOCTYPE svg PUBLIC "-//W3C//DTD SVG 20010904//EN"
 "http://www.w3.org/TR/2001/REC-SVG-20010904/DTD/svg10.dtd">
<svg version="1.0" xmlns="http://www.w3.org/2000/svg"
 width="100.000000pt" height="100.000000pt" viewBox="0 0 100.000000 100.000000"
 preserveAspectRatio="xMidYMid meet">

<g transform="translate(0.000000,100.000000) scale(0.100000,-0.100000)"
fill="#000000" stroke="none">
<path d="M245 850 c-4 -7 -3 -16 3 -22 14 -14 45 -2 40 15 -6 16 -34 21 -43 7z"/>
<path d="M685 850 c-4 -7 -3 -16 3 -22 14 -14 45 -2 40 15 -6 16 -34 21 -43 7z"/>
<path d="M424 820 c-129 -14 -223 -57 -251 -116 -16 -32 -16 -36 2 -71 10 -21
19 -55 20 -77 1 -27 8 -45 26 -60 15 -13 23 -29 21 -44 -2 -16 10 -36 40 -66
51 -53 88 -100 88 -114 0 -14 59 -62 76 -62 8 0 14 -5 14 -11 0 -5 19 -19 43
-30 23 -10 51 -26 61 -34 35 -27 124 -12 113 19 -3 7 3 17 13 24 19 11 29 58
33 153 1 31 8 63 16 72 7 9 14 29 15 45 1 15 11 40 24 56 12 16 22 38 22 49 0
10 14 35 30 54 19 21 30 45 30 63 0 101 -209 173 -436 150z m262 -64 c62 -19
118 -55 122 -80 2 -9 -4 -26 -14 -37 -17 -19 -17 -19 -49 1 -104 64 -363 68
-481 7 -28 -15 -33 -15 -44 -1 -33 39 37 93 154 120 76 17 240 12 312 -10z
m-29 -131 c66 -20 73 -32 26 -44 -52 -13 -330 -6 -368 9 l-30 12 35 15 c82 35
234 39 337 8z m-357 -86 c0 -4 -7 -10 -16 -13 -19 -7 -44 10 -44 29 0 11 6 11
30 2 17 -6 30 -14 30 -18z m440 -3 c-6 -8 -19 -12 -27 -9 -14 6 -14 8 3 14 30
12 37 10 24 -5z m-86 -33 c17 -10 17 -10 0 -18 -34 -14 -236 -18 -284 -5 -44
12 -44 12 -20 25 29 16 276 14 304 -2z m-300 -71 c5 -3 1 -9 -9 -14 -13 -8
-22 -5 -39 12 l-21 21 30 -7 c17 -4 34 -9 39 -12z m351 8 c-3 -5 -10 -10 -16
-10 -5 0 -9 5 -9 10 0 6 7 10 16 10 8 0 12 -4 9 -10z m-98 -32 c25 -10 16 -13
-82 -19 -112 -8 -156 2 -94 19 48 14 143 14 176 0z m22 -77 c22 -14 -90 -34
-144 -26 -67 11 -54 24 28 28 39 1 79 4 87 5 8 1 21 -2 29 -7z"/>
<path d="M385 740 c-4 -7 -3 -16 3 -22 14 -14 45 -2 40 15 -6 16 -34 21 -43 7z"/>
<path d="M531 626 c-9 -10 -8 -16 3 -25 10 -9 16 -8 25 3 9 10 8 16 -3 25 -10
9 -16 8 -25 -3z"/>
<path d="M123 604 c-8 -21 13 -42 28 -27 13 13 5 43 -11 43 -6 0 -13 -7 -17
-16z"/>
<path d="M835 590 c-4 -7 -3 -16 3 -22 14 -14 45 -2 40 15 -6 16 -34 21 -43 7z"/>
<path d="M173 464 c-8 -21 13 -42 28 -27 13 13 5 43 -11 43 -6 0 -13 -7 -17
-16z"/>
<path d="M783 464 c-9 -23 13 -40 32 -24 12 10 13 16 4 26 -15 18 -28 18 -36
-2z"/>
<path d="M273 354 c-9 -23 11 -38 26 -20 13 16 7 36 -10 36 -5 0 -12 -7 -16
-16z"/>
<path d="M745 330 c-10 -16 16 -43 28 -31 11 11 2 41 -12 41 -5 0 -13 -5 -16
-10z"/>
<path d="M332 237 c-10 -11 -9 -17 3 -27 24 -20 45 4 24 26 -14 13 -17 13 -27
1z"/>
<path d="M440 174 c-9 -10 -10 -18 -2 -26 12 -12 32 -2 32 17 0 21 -16 26 -30
9z"/>
</g>
</svg>
