<?xml version="1.0" standalone="no"?>
<!DOCTYPE svg PUBLIC "-//W3C//DTD SVG 20010904//EN"
 "http://www.w3.org/TR/2001/REC-SVG-20010904/DTD/svg10.dtd">
<svg version="1.0" xmlns="http://www.w3.org/2000/svg"
 width="100.000000pt" height="100.000000pt" viewBox="0 0 100.000000 100.000000"
 preserveAspectRatio="xMidYMid meet">

<g transform="translate(0.000000,100.000000) scale(0.100000,-0.100000)"
fill="#000000" stroke="none">
<path d="M462 787 c-21 -22 -22 -33 -22 -176 l0 -153 -30 -34 c-54 -62 -60
-147 -14 -213 20 -28 88 -61 129 -61 48 0 110 34 133 72 42 68 22 186 -37 218
-20 10 -21 20 -21 169 0 152 -1 158 -23 179 -32 30 -87 29 -115 -1z m108 -223
l0 -135 30 -25 c42 -36 56 -89 37 -137 -17 -40 -68 -77 -105 -77 -68 0 -122
58 -122 130 0 35 6 48 35 77 l35 35 0 134 0 134 45 0 45 0 0 -136z"/>
<path d="M345 730 c-11 -18 10 -32 41 -28 40 4 38 32 -3 36 -17 2 -34 -2 -38
-8z"/>
<path d="M355 671 c-7 -13 17 -24 40 -19 9 1 16 8 16 13 0 14 -48 19 -56 6z"/>
<path d="M355 620 c-4 -7 -3 -16 3 -22 14 -14 57 -6 57 12 0 18 -50 26 -60 10z"/>
<path d="M356 562 c-8 -14 20 -34 41 -30 28 5 22 33 -9 36 -14 2 -29 -1 -32
-6z"/>
<path d="M343 498 c2 -7 19 -13 37 -13 18 0 35 6 38 13 2 8 -9 12 -38 12 -29
0 -40 -4 -37 -12z"/>
</g>
</svg>
