<?xml version="1.0" standalone="no"?>
<!DOCTYPE svg PUBLIC "-//W3C//DTD SVG 20010904//EN"
 "http://www.w3.org/TR/2001/REC-SVG-20010904/DTD/svg10.dtd">
<svg version="1.0" xmlns="http://www.w3.org/2000/svg"
 width="100.000000pt" height="100.000000pt" viewBox="0 0 100.000000 100.000000"
 preserveAspectRatio="xMidYMid meet">

<g transform="translate(0.000000,100.000000) scale(0.100000,-0.100000)"
fill="#000000" stroke="none">
<path d="M457 798 c-29 -23 -37 -67 -37 -213 0 -112 -3 -144 -14 -148 -20 -8
-56 -88 -56 -125 0 -50 24 -96 65 -128 31 -23 48 -28 96 -29 62 0 94 16 132
67 43 57 30 170 -24 210 l-29 22 0 153 c0 150 -1 155 -25 178 -27 28 -80 34
-108 13z m93 -322 c0 -46 3 -56 21 -61 49 -16 74 -107 44 -164 -15 -31 -69
-61 -107 -61 -37 0 -88 37 -104 77 -20 48 -11 92 26 128 26 25 30 36 30 82 l0
53 45 0 45 0 0 -54z"/>
<path d="M332 723 c2 -13 12 -18 38 -18 51 0 48 29 -3 33 -33 3 -38 1 -35 -15z"/>
<path d="M345 671 c-7 -13 17 -24 40 -19 9 1 16 8 16 13 0 14 -48 19 -56 6z"/>
<path d="M345 620 c-4 -7 -3 -16 3 -22 14 -14 57 -6 57 12 0 18 -50 26 -60 10z"/>
<path d="M345 560 c-9 -15 3 -30 24 -30 21 0 44 23 34 33 -10 11 -51 8 -58 -3z"/>
<path d="M330 495 c0 -13 8 -16 38 -13 20 2 37 8 37 13 0 6 -17 11 -37 13 -30
3 -38 0 -38 -13z"/>
</g>
</svg>
