<?xml version="1.0" standalone="no"?>
<!DOCTYPE svg PUBLIC "-//W3C//DTD SVG 20010904//EN"
 "http://www.w3.org/TR/2001/REC-SVG-20010904/DTD/svg10.dtd">
<svg version="1.0" xmlns="http://www.w3.org/2000/svg"
 width="100.000000pt" height="100.000000pt" viewBox="0 0 100.000000 100.000000"
 preserveAspectRatio="xMidYMid meet">

<g transform="translate(0.000000,100.000000) scale(0.100000,-0.100000)"
fill="#000000" stroke="none">
<path d="M545 658 c-17 -45 -115 -344 -115 -350 0 -4 13 -8 29 -8 30 0 30 2
76 143 25 78 52 161 60 185 l14 42 -30 0 c-16 0 -32 -6 -34 -12z"/>
<path d="M140 485 l0 -165 40 0 40 0 0 93 0 92 61 -92 c60 -91 63 -93 100 -93
l39 0 0 165 0 165 -40 0 -39 0 -3 -92 -3 -92 -60 92 c-58 89 -61 92 -97 92
l-38 0 0 -165z"/>
<path d="M658 485 l-57 -165 40 0 c36 0 41 3 50 30 10 28 14 30 64 30 51 0 54
-1 60 -30 6 -27 10 -30 46 -30 25 0 39 5 38 13 0 6 -24 80 -53 162 l-52 150
-39 3 -40 3 -57 -166z m122 -27 c0 -5 -11 -8 -25 -8 -28 0 -30 7 -13 62 l12
40 13 -44 c7 -23 13 -46 13 -50z"/>
</g>
</svg>
